<svg width="48" height="50" fill="none" xmlns="http://www.w3.org/2000/svg"><path d="M44.157.146a3.485 3.485 0 0 1 3.485 3.485v12.623a3.484 3.484 0 0 1-2.043 3.16l-17.8 8.088A11.435 11.435 0 1 1 16.47 46.947a11.436 11.436 0 0 1 3.517-19.445L2.19 19.414a3.486 3.486 0 0 1-2.043-3.16V3.63A3.485 3.485 0 0 1 3.631.146h40.526ZM23.895 29.174a9.084 9.084 0 1 0 0 18.168 9.084 9.084 0 0 0 0-18.168Zm-9.085-6.598 9.084 4.131 9.084-4.13V2.498H14.81v20.077ZM3.63 2.5A1.133 1.133 0 0 0 2.5 3.631v12.622a1.134 1.134 0 0 0 .663 1.031l9.297 4.225V2.499H3.631Zm31.7 19.01 9.296-4.225a1.134 1.134 0 0 0 .663-1.031V3.63a1.133 1.133 0 0 0-1.132-1.132H35.33v19.01Z" fill="#0084FB" stroke="#0084FB" stroke-width=".3"/></svg>