<svg width="39" height="49" fill="none" xmlns="http://www.w3.org/2000/svg"><path d="M19.27 48.6a4.84 4.84 0 0 1-.79-.07 3.88 3.88 0 0 1-.77-.206c-5.42-2.065-9.727-5.566-12.92-10.505C1.597 32.88 0 27.534 0 21.781V9.99c0-.944.269-1.794.807-2.55A4.581 4.581 0 0 1 2.89 5.798L17.715.292A4.547 4.547 0 0 1 19.27 0c.501 0 1.02.097 1.558.292L35.65 5.798c.851.34 1.546.889 2.084 1.643.537.756.806 1.606.806 2.55v11.79c0 5.753-1.596 11.1-4.79 16.038-3.193 4.939-7.499 8.44-12.916 10.505-.24.092-.498.16-.774.207a4.807 4.807 0 0 1-.79.068Zm0-2.594c4.772-1.514 8.718-4.542 11.838-9.084 3.12-4.543 4.68-9.59 4.68-15.141V9.938c0-.352-.098-.67-.292-.953a1.727 1.727 0 0 0-.82-.633L19.853 2.846a1.503 1.503 0 0 0-.584-.11c-.213 0-.407.037-.584.11L3.865 8.352c-.354.14-.628.35-.82.633-.195.283-.292.6-.292.953V21.78c0 5.551 1.56 10.598 4.68 15.14 3.12 4.543 7.066 7.571 11.837 9.085Z" fill="#0084FB"/></svg>