<svg width="42" height="45" fill="none" xmlns="http://www.w3.org/2000/svg"><path d="M33.69 19.934a.896.896 0 0 1-1.338 1.19c-.758-.849-2.392-1.487-3.793-1.487-1.401 0-3.039.638-3.793 1.486a.893.893 0 0 1-.67.3.892.892 0 0 1-.669-1.49c1.098-1.226 3.207-2.08 5.132-2.08 1.926 0 4.03.854 5.132 2.08Zm-17.402 1.19a.893.893 0 0 0 1.474-.205.897.897 0 0 0-.136-.985c-1.097-1.227-3.206-2.082-5.131-2.082-1.926 0-4.03.855-5.132 2.082a.893.893 0 0 0 1.036 1.41.893.893 0 0 0 .303-.22c.758-.849 2.392-1.487 3.793-1.487 1.4 0 3.039.638 3.793 1.486Zm11.223 7.75a9.123 9.123 0 0 1-13.977 0 .893.893 0 0 0-1.358 1.16 10.916 10.916 0 0 0 16.693 0 .893.893 0 1 0-1.358-1.16ZM41.053 2.68v12.446c0 7.809-2.098 15.172-5.908 20.732-3.88 5.656-9.072 8.769-14.62 8.769-5.546 0-10.738-3.113-14.618-8.767C2.098 30.31 0 22.946 0 15.128V2.68A2.677 2.677 0 0 1 3.646.181c3.195 1.245 9.636 3.325 16.88 3.325 7.246 0 13.687-2.08 16.882-3.32a2.677 2.677 0 0 1 3.646 2.494Zm-1.785 0a.893.893 0 0 0-1.214-.834c-3.311 1.28-9.993 3.445-17.528 3.445-7.535 0-14.217-2.165-17.528-3.443a.863.863 0 0 0-.819.096.892.892 0 0 0-.395.736v12.444c0 15.285 8.407 27.718 18.742 27.718s18.742-12.433 18.742-27.714V2.68Z" fill="#0084FB"/></svg>