<svg width="46" height="46" fill="none" xmlns="http://www.w3.org/2000/svg"><path d="M30.586 5.565c3.029-3.042 7.46-3.105 9.913-.642 2.459 2.467 2.393 6.928-.64 9.97l-5.118 5.139a1.585 1.585 0 0 0 2.243 2.237l5.12-5.14c4.037-4.053 4.544-10.523.64-14.443-3.907-3.923-10.365-3.412-14.406.642l-10.236 10.28c-4.037 4.054-4.543 10.524-.64 14.442a1.583 1.583 0 1 0 2.245-2.235c-2.458-2.467-2.39-6.928.64-9.97l10.239-10.28Z" fill="#0084FB"/><path d="M27.957 17.364a1.585 1.585 0 1 0-2.245 2.24c2.459 2.467 2.393 6.926-.64 9.97L14.834 39.852c-3.031 3.042-7.463 3.105-9.916.642-2.458-2.467-2.39-6.928.64-9.97l5.12-5.14a1.586 1.586 0 0 0-2.245-2.236l-5.12 5.14C-.724 32.342-1.23 38.81 2.673 42.73c3.908 3.925 10.365 3.412 14.406-.642l10.238-10.28c4.037-4.052 4.544-10.526.64-14.445Z" fill="#0084FB"/></svg>