<svg width="44" height="46" fill="none" xmlns="http://www.w3.org/2000/svg"><path d="M21.898 27.672a4.812 4.812 0 1 0 0-9.625 4.812 4.812 0 0 0 0 9.625Z" stroke="#0084FB" stroke-width="2"/><path d="m6.019 8.135.601-1.044a1.203 1.203 0 0 0-1.484.224l.883.82Zm-4.81 8.335-1.15-.356a1.203 1.203 0 0 0 .548 1.396l.602-1.04Zm-.005 12.78-.602-1.043a1.203 1.203 0 0 0-.548 1.398l1.15-.356Zm4.812 8.334-.883.818a1.203 1.203 0 0 0 1.485.224l-.602-1.042Zm11.069 6.389H15.88a1.203 1.203 0 0 0 .939 1.174l.265-1.174Zm9.627.004.267 1.175a1.203 1.203 0 0 0 .936-1.175h-1.203Zm11.07-6.39-.601 1.041a1.203 1.203 0 0 0 1.484-.223l-.883-.818Zm4.808-8.34 1.15.356a1.202 1.202 0 0 0-.549-1.396l-.601 1.04Zm.005-12.78.601 1.043a1.203 1.203 0 0 0 .549-1.398l-1.15.356ZM37.782 8.13l.883-.818a1.203 1.203 0 0 0-1.484-.223l.601 1.041ZM26.714 1.747h1.203a1.203 1.203 0 0 0-.936-1.172l-.267 1.172Zm-9.625-.005L16.822.568a1.203 1.203 0 0 0-.938 1.174h1.205ZM2.36 16.826A20.452 20.452 0 0 1 6.9 8.951L5.136 7.315a22.849 22.849 0 0 0-5.077 8.8l2.3.711Zm1.829 16.261a20.454 20.454 0 0 1-1.832-4.191l-2.3.712a22.856 22.856 0 0 0 2.05 4.682l2.082-1.203Zm2.714 3.682a20.466 20.466 0 0 1-2.714-3.682L2.106 34.29a22.86 22.86 0 0 0 3.03 4.115l1.766-1.636Zm19.545 6.039c-2.992.68-6.1.679-9.09-.005l-.535 2.344c3.343.764 6.815.767 10.16.007l-.535-2.346Zm14.997-13.912a20.452 20.452 0 0 1-4.54 7.875l1.764 1.636a22.857 22.857 0 0 0 5.077-8.802l-2.3-.71Zm-1.828-16.261a20.752 20.752 0 0 1 1.833 4.191l2.298-.712a22.859 22.859 0 0 0-2.05-4.682l-2.081 1.203Zm-2.714-3.682a20.464 20.464 0 0 1 2.714 3.682l2.081-1.203a22.86 22.86 0 0 0-3.03-4.115l-1.765 1.636Zm-19.546-6.04a20.452 20.452 0 0 1 9.09.006l.535-2.344a22.858 22.858 0 0 0-10.16-.007l.535 2.346Zm.936 3.278V1.74h-2.406v4.45h2.407Zm-7.82 3.123L6.62 7.091 5.417 9.172l3.85 2.226 1.205-2.084Zm-6.015 16.67L.602 28.207l1.206 2.084 3.85-2.223-1.201-2.084ZM5.66 17.65l-3.85-2.22-1.203 2.083 3.85 2.221L5.66 17.65Zm12.633 26.324v-4.445h-2.407v4.445h2.407ZM9.269 34.32l-3.852 2.223 1.203 2.084 3.85-2.223-1.2-2.084Zm29.117 2.226-3.852-2.226-1.203 2.086 3.85 2.224 1.205-2.084ZM27.917 43.98v-4.452h-2.406v4.452h2.406Zm14.078-28.554-3.852 2.223 1.203 2.084 3.85-2.223-1.2-2.084Zm1.199 12.78-3.848-2.217-1.203 2.084 3.85 2.22 1.2-2.088ZM27.917 6.19V1.747h-2.406V6.19h2.406Zm9.266.9-3.852 2.226 1.203 2.083 3.852-2.225-1.203-2.084Zm-11.672-.9c0 4.63 5.012 7.524 9.023 5.21l-1.203-2.084a3.61 3.61 0 0 1-5.414-3.126h-2.406Zm12.632 11.46c-4.01 2.315-4.01 8.105 0 10.42l1.203-2.084a3.61 3.61 0 0 1 0-6.252l-1.203-2.083Zm-3.609 16.67c-4.011-2.314-9.023.576-9.023 5.207h2.406a3.61 3.61 0 0 1 5.414-3.123l1.203-2.084Zm-16.241 5.207c0-4.629-5.013-7.521-9.024-5.206l1.203 2.083a3.61 3.61 0 0 1 5.414 3.128l2.407-.005ZM5.66 28.07c4.011-2.314 4.011-8.104 0-10.418l-1.203 2.083c2.406 1.389 2.406 4.858 0 6.25L5.66 28.07ZM15.886 6.191a3.608 3.608 0 0 1-5.414 3.123L9.27 11.4c4.011 2.315 9.024-.577 9.024-5.209h-2.407Z" fill="#0084FB"/></svg>