<svg width="46" height="27" fill="none" xmlns="http://www.w3.org/2000/svg"><path d="M22.971 20.595a7.128 7.128 0 1 0 0-14.257 7.128 7.128 0 0 0 0 14.257Zm0-12.674a5.545 5.545 0 1 1 0 11.09 5.545 5.545 0 0 1 0-11.09ZM45.15 0H.792A.792.792 0 0 0 0 .792V26.14a.792.792 0 0 0 .792.793H45.15a.792.792 0 0 0 .792-.793V.792A.792.792 0 0 0 45.15 0ZM1.584 9.359A10.446 10.446 0 0 0 9.36 1.584h27.224a10.446 10.446 0 0 0 7.775 7.775v8.214a10.446 10.446 0 0 0-7.775 7.774H9.36a10.446 10.446 0 0 0-7.775-7.774V9.359Zm42.774-1.636a8.871 8.871 0 0 1-6.139-6.139h6.139v6.139ZM7.723 1.584a8.872 8.872 0 0 1-6.139 6.139V1.584h6.139ZM1.584 19.21a8.871 8.871 0 0 1 6.139 6.138H1.584v-6.139Zm36.635 6.138a8.871 8.871 0 0 1 6.139-6.139v6.14h-6.139Z" fill="#0084FB"/></svg>