<svg width="50" height="50" fill="none" xmlns="http://www.w3.org/2000/svg"><path d="M17.15 50c-.74 0-1.349-.242-1.828-.725-.48-.485-.719-1.085-.719-1.8V35.397H2.525c-.715 0-1.315-.242-1.8-.725-.485-.483-.727-1.083-.725-1.8V17.209c0-.74.242-1.349.725-1.828.483-.479 1.083-.719 1.8-.719h12.078V2.525c0-.715.242-1.315.725-1.8.484-.485 1.084-.727 1.8-.725h15.663c.74 0 1.349.242 1.828.725.479.485.718 1.085.718 1.8v12.137h12.138c.717 0 1.317.243 1.8.729.483.485.725 1.084.725 1.796V32.85c0 .74-.242 1.349-.725 1.828-.485.48-1.085.719-1.8.719H35.337v12.078c0 .717-.242 1.317-.728 1.8-.485.483-1.084.725-1.797.725H17.15Zm.578-3.125h14.484V32.272h14.663V17.788H32.212V3.125H17.728v14.663H3.125v14.484h14.603v14.603Z" fill="#0084FB"/></svg>