<svg width="50" height="44" fill="none" xmlns="http://www.w3.org/2000/svg"><mask id="a" maskUnits="userSpaceOnUse" x="-.602" y="-.602" width="51" height="45" fill="#000"><path fill="#fff" d="M-.602-.602h51v45h-51z"/><path d="M49.189 27.61a.938.938 0 0 1-.938.939H43.56v4.69a.939.939 0 0 1-1.877 0v-4.69h-4.69a.938.938 0 1 1 0-1.877h4.69v-4.69a.938.938 0 1 1 1.877 0v4.69h4.69a.939.939 0 0 1 .939.939ZM5.094 7.91h4.69v4.69a.938.938 0 0 0 1.877 0V7.91h4.691a.938.938 0 0 0 0-1.877h-4.69v-4.69a.938.938 0 1 0-1.877 0v4.69H5.094a.938.938 0 0 0 0 1.877Zm30.022 30.02h-2.814v-2.815a.939.939 0 0 0-1.877 0v2.815h-2.814a.938.938 0 0 0 0 1.876h2.814v2.815a.938.938 0 1 0 1.877 0v-2.815h2.814a.938.938 0 1 0 0-1.876Zm7.618-27.872L10.06 42.737a2.816 2.816 0 0 1-3.987 0l-4.846-4.853a2.815 2.815 0 0 1 0-3.987l32.678-32.67a2.815 2.815 0 0 1 3.987 0l4.843 4.852a2.815 2.815 0 0 1 0 3.98Zm-10.822 8.17-6.178-6.178-23.18 23.18a.938.938 0 0 0 0 1.325l4.85 4.853a.938.938 0 0 0 1.328 0l23.18-23.18ZM41.41 7.407l-4.853-4.853a.939.939 0 0 0-1.327 0l-8.17 8.17 6.18 6.177 8.17-8.17a.938.938 0 0 0 0-1.324Z"/></mask><path d="M49.189 27.61a.938.938 0 0 1-.938.939H43.56v4.69a.939.939 0 0 1-1.877 0v-4.69h-4.69a.938.938 0 1 1 0-1.877h4.69v-4.69a.938.938 0 1 1 1.877 0v4.69h4.69a.939.939 0 0 1 .939.939ZM5.094 7.91h4.69v4.69a.938.938 0 0 0 1.877 0V7.91h4.691a.938.938 0 0 0 0-1.877h-4.69v-4.69a.938.938 0 1 0-1.877 0v4.69H5.094a.938.938 0 0 0 0 1.877Zm30.022 30.02h-2.814v-2.815a.939.939 0 0 0-1.877 0v2.815h-2.814a.938.938 0 0 0 0 1.876h2.814v2.815a.938.938 0 1 0 1.877 0v-2.815h2.814a.938.938 0 1 0 0-1.876Zm7.618-27.872L10.06 42.737a2.816 2.816 0 0 1-3.987 0l-4.846-4.853a2.815 2.815 0 0 1 0-3.987l32.678-32.67a2.815 2.815 0 0 1 3.987 0l4.843 4.852a2.815 2.815 0 0 1 0 3.98Zm-10.822 8.17-6.178-6.178-23.18 23.18a.938.938 0 0 0 0 1.325l4.85 4.853a.938.938 0 0 0 1.328 0l23.18-23.18ZM41.41 7.407l-4.853-4.853a.939.939 0 0 0-1.327 0l-8.17 8.17 6.18 6.177 8.17-8.17a.938.938 0 0 0 0-1.324Z" fill="#0084FB"/><path d="M49.189 27.61a.938.938 0 0 1-.938.939H43.56v4.69a.939.939 0 0 1-1.877 0v-4.69h-4.69a.938.938 0 1 1 0-1.877h4.69v-4.69a.938.938 0 1 1 1.877 0v4.69h4.69a.939.939 0 0 1 .939.939ZM5.094 7.91h4.69v4.69a.938.938 0 0 0 1.877 0V7.91h4.691a.938.938 0 0 0 0-1.877h-4.69v-4.69a.938.938 0 1 0-1.877 0v4.69H5.094a.938.938 0 0 0 0 1.877Zm30.022 30.02h-2.814v-2.815a.939.939 0 0 0-1.877 0v2.815h-2.814a.938.938 0 0 0 0 1.876h2.814v2.815a.938.938 0 1 0 1.877 0v-2.815h2.814a.938.938 0 1 0 0-1.876Zm7.618-27.872L10.06 42.737a2.816 2.816 0 0 1-3.987 0l-4.846-4.853a2.815 2.815 0 0 1 0-3.987l32.678-32.67a2.815 2.815 0 0 1 3.987 0l4.843 4.852a2.815 2.815 0 0 1 0 3.98Zm-10.822 8.17-6.178-6.178-23.18 23.18a.938.938 0 0 0 0 1.325l4.85 4.853a.938.938 0 0 0 1.328 0l23.18-23.18ZM41.41 7.407l-4.853-4.853a.939.939 0 0 0-1.327 0l-8.17 8.17 6.18 6.177 8.17-8.17a.938.938 0 0 0 0-1.324Z" stroke="#0084FB" stroke-width=".8" mask="url(#a)"/></svg>