<svg width="46" height="46" fill="none" xmlns="http://www.w3.org/2000/svg"><path d="M13.262 45.831c-3.681 0-6.812-1.29-9.392-3.87C1.29 39.381 0 36.244 0 32.55c0-1.543.264-3.046.793-4.509a13.256 13.256 0 0 1 2.292-3.996l10.06-12.08L8.88 3.329c-.403-.771-.386-1.519.051-2.242C9.371.362 10.03 0 10.908 0h24.015c.879 0 1.538.362 1.977 1.086.44.723.456 1.471.052 2.242l-4.266 8.637 10.06 12.08a13.255 13.255 0 0 1 2.292 3.995c.529 1.461.793 2.964.793 4.509 0 3.695-1.289 6.833-3.867 9.412-2.578 2.58-5.71 3.87-9.395 3.87H13.262Zm9.645-12.947c-1.276 0-2.364-.454-3.265-1.36-.902-.908-1.352-2-1.352-3.275s.453-2.364 1.36-3.265c.907-.902 2-1.352 3.277-1.352 1.278 0 2.366.454 3.266 1.363.899.91 1.35 2 1.352 3.274.002 1.274-.453 2.363-1.364 3.266-.91.903-2.002 1.354-3.274 1.352m-7.124-22.145h14.322l3.91-7.878h-22.2l3.968 7.878Zm-2.52 32.225h19.306c2.904 0 5.364-1.016 7.379-3.048 2.013-2.036 3.019-4.49 3.019-7.364 0-1.211-.203-2.39-.61-3.538a9.982 9.982 0 0 0-1.79-3.122L30.311 13.606H15.588L5.322 25.88A10.252 10.252 0 0 0 3.5 29.017a10.243 10.243 0 0 0-.636 3.549c0 2.868 1.017 5.32 3.051 7.353 2.032 2.032 4.481 3.048 7.347 3.048Z" fill="#0084FB"/></svg>