<svg width="47" height="44" fill="none" xmlns="http://www.w3.org/2000/svg"><path d="m23.628 6.899-3.13-5.649-15.471 9.993m31.104 0-5.067-9.147-14.162 9.147M42.055 34.16v5.008a3.578 3.578 0 0 1-3.568 3.585H4.833a3.577 3.577 0 0 1-3.583-3.566V14.825a3.576 3.576 0 0 1 3.569-3.584H38.47a3.577 3.577 0 0 1 3.585 3.57v5.747m-6.246 6.845a2.42 2.42 0 1 1-4.838 0 2.42 2.42 0 0 1 4.838 0Zm-3.001 6.858c-3.817 0-6.89-3.035-6.89-6.803s3.072-6.802 6.89-6.802l10.786-.114c.766 0 1.38.614 1.38 1.377v10.848c0 .765-.614 1.38-1.378 1.38l-10.788.114Z" stroke="#0084FB" stroke-width="2.5" stroke-linecap="round" stroke-linejoin="round"/></svg>