<svg width="44" height="42" fill="none" xmlns="http://www.w3.org/2000/svg"><path d="M21.972 18.83c-2.588 0-4.805-.922-6.65-2.768-1.847-1.846-2.768-4.062-2.766-6.648.002-2.587.924-4.805 2.765-6.655C17.163.91 19.38-.01 21.972 0c2.593.01 4.81.931 6.652 2.762 1.841 1.831 2.763 4.05 2.765 6.655.002 2.605-.92 4.821-2.765 6.648-1.846 1.827-4.063 2.747-6.652 2.765ZM0 41.529v-5.167c0-1.295.377-2.507 1.13-3.634.755-1.13 1.77-2.007 3.045-2.63 2.963-1.422 5.928-2.487 8.896-3.196a38.032 38.032 0 0 1 8.901-1.068c2.97 0 5.938.356 8.906 1.068 2.967.711 5.93 1.776 8.889 3.195 1.276.624 2.291 1.5 3.045 2.63.755 1.128 1.133 2.34 1.133 3.635v5.167H0Zm3.139-3.139h37.667v-2.028c0-.694-.225-1.348-.675-1.961-.448-.611-1.068-1.128-1.861-1.551a39.755 39.755 0 0 0-7.992-2.875 34.95 34.95 0 0 0-16.611-.004 40.011 40.011 0 0 0-7.992 2.876c-.795.423-1.415.94-1.861 1.55-.45.614-.675 1.268-.675 1.965v2.028Zm18.833-22.694c1.727 0 3.205-.616 4.436-1.846 1.23-1.23 1.844-2.71 1.842-4.438-.002-1.729-.616-3.206-1.842-4.433-1.227-1.226-2.705-1.841-4.436-1.845-1.73-.004-3.207.61-4.432 1.845-1.224 1.235-1.84 2.712-1.845 4.433-.007 1.72.609 3.198 1.845 4.435 1.237 1.237 2.714 1.85 4.432 1.842" fill="#0084FB"/></svg>