<svg width="46" height="32" fill="none" xmlns="http://www.w3.org/2000/svg"><path d="M10.35 32c-2.869 0-5.31-.995-7.325-2.985C1.007 27.028 0 24.607 0 21.753c0-2.62.9-4.944 2.703-6.974 1.801-2.03 4.04-3.12 6.718-3.27.517-3.33 2.058-6.08 4.623-8.252C16.609 1.086 19.594 0 23 0c3.836 0 7.096 1.333 9.777 3.998C35.46 6.663 36.8 9.902 36.8 13.714V16h1.417c2.202.07 4.05.874 5.543 2.411C45.253 19.95 46 21.811 46 24c0 2.241-.777 4.136-2.332 5.682C42.11 31.227 40.204 32 37.95 32h-27.6Zm0-2.286h27.6c1.61 0 2.97-.552 4.082-1.657C43.145 26.952 43.7 25.6 43.7 24c0-1.6-.556-2.952-1.668-4.057-1.111-1.105-2.472-1.657-4.082-1.657H34.5v-4.572c0-3.162-1.122-5.857-3.365-8.087C28.892 3.398 26.18 2.284 23 2.286c-3.18.001-5.892 1.116-8.135 3.344-2.243 2.228-3.365 4.922-3.365 8.084h-1.15c-2.223 0-4.12.781-5.692 2.343C3.085 17.62 2.3 19.505 2.3 21.714c0 2.21.786 4.096 2.357 5.657 1.572 1.562 3.47 2.343 5.693 2.343Z" fill="#0084FB"/></svg>