<svg width="50" height="44" viewBox="0 0 50 44" fill="none" xmlns="http://www.w3.org/2000/svg">
<mask id="path-1-outside-1_271_3898" maskUnits="userSpaceOnUse" x="-0.601562" y="-0.601562" width="51" height="45" fill="black">
<rect fill="white" x="-0.601562" y="-0.601562" width="51" height="45"/>
<path d="M49.189 27.6106C49.189 27.8594 49.0902 28.0981 48.9143 28.274C48.7383 28.45 48.4997 28.5488 48.2509 28.5488H43.5599V33.2398C43.5599 33.4886 43.461 33.7272 43.2851 33.9032C43.1092 34.0791 42.8705 34.178 42.6217 34.178C42.3729 34.178 42.1342 34.0791 41.9583 33.9032C41.7823 33.7272 41.6835 33.4886 41.6835 33.2398V28.5488H36.9925C36.7437 28.5488 36.5051 28.45 36.3291 28.274C36.1532 28.0981 36.0543 27.8594 36.0543 27.6106C36.0543 27.3618 36.1532 27.1231 36.3291 26.9472C36.5051 26.7713 36.7437 26.6724 36.9925 26.6724H41.6835V21.9814C41.6835 21.7326 41.7823 21.494 41.9583 21.318C42.1342 21.1421 42.3729 21.0433 42.6217 21.0433C42.8705 21.0433 43.1092 21.1421 43.2851 21.318C43.461 21.494 43.5599 21.7326 43.5599 21.9814V26.6724H48.2509C48.4997 26.6724 48.7383 26.7713 48.9143 26.9472C49.0902 27.1231 49.189 27.3618 49.189 27.6106ZM5.09397 7.90855H9.78493V12.5995C9.78493 12.8483 9.88378 13.087 10.0597 13.2629C10.2357 13.4389 10.4743 13.5377 10.7231 13.5377C10.972 13.5377 11.2106 13.4389 11.3865 13.2629C11.5625 13.087 11.6613 12.8483 11.6613 12.5995V7.90855H16.3523C16.6011 7.90855 16.8397 7.8097 17.0157 7.63376C17.1916 7.45781 17.2905 7.21918 17.2905 6.97035C17.2905 6.72153 17.1916 6.4829 17.0157 6.30695C16.8397 6.13101 16.6011 6.03216 16.3523 6.03216H11.6613V1.3412C11.6613 1.09237 11.5625 0.853738 11.3865 0.677793C11.2106 0.501848 10.972 0.403002 10.7231 0.403002C10.4743 0.403002 10.2357 0.501848 10.0597 0.677793C9.88378 0.853738 9.78493 1.09237 9.78493 1.3412V6.03216H5.09397C4.84514 6.03216 4.60651 6.13101 4.43057 6.30695C4.25462 6.4829 4.15577 6.72153 4.15577 6.97035C4.15577 7.21918 4.25462 7.45781 4.43057 7.63376C4.60651 7.8097 4.84514 7.90855 5.09397 7.90855ZM35.1161 37.9307H32.3016V35.1161C32.3016 34.8673 32.2027 34.6287 32.0268 34.4527C31.8508 34.2768 31.6122 34.178 31.3634 34.178C31.1146 34.178 30.8759 34.2768 30.7 34.4527C30.524 34.6287 30.4252 34.8673 30.4252 35.1161V37.9307H27.6106C27.3618 37.9307 27.1231 38.0296 26.9472 38.2055C26.7713 38.3815 26.6724 38.6201 26.6724 38.8689C26.6724 39.1177 26.7713 39.3564 26.9472 39.5323C27.1231 39.7083 27.3618 39.8071 27.6106 39.8071H30.4252V42.6217C30.4252 42.8705 30.524 43.1092 30.7 43.2851C30.8759 43.461 31.1146 43.5599 31.3634 43.5599C31.6122 43.5599 31.8508 43.461 32.0268 43.2851C32.2027 43.1092 32.3016 42.8705 32.3016 42.6217V39.8071H35.1161C35.365 39.8071 35.6036 39.7083 35.7796 39.5323C35.9555 39.3564 36.0543 39.1177 36.0543 38.8689C36.0543 38.6201 35.9555 38.3815 35.7796 38.2055C35.6036 38.0296 35.365 37.9307 35.1161 37.9307ZM42.7343 10.0594L10.0594 42.7366C9.79787 42.999 9.48716 43.2072 9.14504 43.3493C8.80293 43.4913 8.43613 43.5645 8.06569 43.5645C7.69526 43.5645 7.32846 43.4913 6.98634 43.3493C6.64423 43.2072 6.33352 42.999 6.07203 42.7366L1.22627 37.8838C0.963873 37.6223 0.755678 37.3116 0.61362 36.9695C0.471563 36.6274 0.398438 36.2606 0.398438 35.8902C0.398438 35.5197 0.471563 35.1529 0.61362 34.8108C0.755678 34.4687 0.963873 34.158 1.22627 33.8965L33.9035 1.22627C34.165 0.963873 34.4757 0.755678 34.8178 0.61362C35.16 0.471563 35.5268 0.398438 35.8972 0.398438C36.2676 0.398438 36.6344 0.471563 36.9765 0.61362C37.3187 0.755678 37.6294 0.963873 37.8909 1.22627L42.7343 6.07907C43.2621 6.6069 43.5586 7.32277 43.5586 8.06921C43.5586 8.81565 43.2621 9.53152 42.7343 10.0594ZM31.9122 18.2287L25.7342 12.0507L2.55381 35.2311C2.37836 35.407 2.27982 35.6452 2.27982 35.8937C2.27982 36.1421 2.37836 36.3804 2.55381 36.5563L7.40427 41.4091C7.4914 41.4963 7.59487 41.5655 7.70877 41.6127C7.82266 41.6599 7.94475 41.6842 8.06804 41.6842C8.19133 41.6842 8.31342 41.6599 8.42731 41.6127C8.54121 41.5655 8.64468 41.4963 8.73181 41.4091L31.9122 18.2287ZM41.4091 7.40661L36.5563 2.55381C36.4691 2.46658 36.3657 2.39738 36.2518 2.35017C36.1379 2.30295 36.0158 2.27865 35.8925 2.27865C35.7692 2.27865 35.6471 2.30295 35.5332 2.35017C35.4193 2.39738 35.3159 2.46658 35.2287 2.55381L27.0594 10.7231L33.2398 16.9011L41.4091 8.73181C41.5845 8.55593 41.6831 8.31764 41.6831 8.06921C41.6831 7.82078 41.5845 7.58249 41.4091 7.40661Z"/>
</mask>
<path d="M49.189 27.6106C49.189 27.8594 49.0902 28.0981 48.9143 28.274C48.7383 28.45 48.4997 28.5488 48.2509 28.5488H43.5599V33.2398C43.5599 33.4886 43.461 33.7272 43.2851 33.9032C43.1092 34.0791 42.8705 34.178 42.6217 34.178C42.3729 34.178 42.1342 34.0791 41.9583 33.9032C41.7823 33.7272 41.6835 33.4886 41.6835 33.2398V28.5488H36.9925C36.7437 28.5488 36.5051 28.45 36.3291 28.274C36.1532 28.0981 36.0543 27.8594 36.0543 27.6106C36.0543 27.3618 36.1532 27.1231 36.3291 26.9472C36.5051 26.7713 36.7437 26.6724 36.9925 26.6724H41.6835V21.9814C41.6835 21.7326 41.7823 21.494 41.9583 21.318C42.1342 21.1421 42.3729 21.0433 42.6217 21.0433C42.8705 21.0433 43.1092 21.1421 43.2851 21.318C43.461 21.494 43.5599 21.7326 43.5599 21.9814V26.6724H48.2509C48.4997 26.6724 48.7383 26.7713 48.9143 26.9472C49.0902 27.1231 49.189 27.3618 49.189 27.6106ZM5.09397 7.90855H9.78493V12.5995C9.78493 12.8483 9.88378 13.087 10.0597 13.2629C10.2357 13.4389 10.4743 13.5377 10.7231 13.5377C10.972 13.5377 11.2106 13.4389 11.3865 13.2629C11.5625 13.087 11.6613 12.8483 11.6613 12.5995V7.90855H16.3523C16.6011 7.90855 16.8397 7.8097 17.0157 7.63376C17.1916 7.45781 17.2905 7.21918 17.2905 6.97035C17.2905 6.72153 17.1916 6.4829 17.0157 6.30695C16.8397 6.13101 16.6011 6.03216 16.3523 6.03216H11.6613V1.3412C11.6613 1.09237 11.5625 0.853738 11.3865 0.677793C11.2106 0.501848 10.972 0.403002 10.7231 0.403002C10.4743 0.403002 10.2357 0.501848 10.0597 0.677793C9.88378 0.853738 9.78493 1.09237 9.78493 1.3412V6.03216H5.09397C4.84514 6.03216 4.60651 6.13101 4.43057 6.30695C4.25462 6.4829 4.15577 6.72153 4.15577 6.97035C4.15577 7.21918 4.25462 7.45781 4.43057 7.63376C4.60651 7.8097 4.84514 7.90855 5.09397 7.90855ZM35.1161 37.9307H32.3016V35.1161C32.3016 34.8673 32.2027 34.6287 32.0268 34.4527C31.8508 34.2768 31.6122 34.178 31.3634 34.178C31.1146 34.178 30.8759 34.2768 30.7 34.4527C30.524 34.6287 30.4252 34.8673 30.4252 35.1161V37.9307H27.6106C27.3618 37.9307 27.1231 38.0296 26.9472 38.2055C26.7713 38.3815 26.6724 38.6201 26.6724 38.8689C26.6724 39.1177 26.7713 39.3564 26.9472 39.5323C27.1231 39.7083 27.3618 39.8071 27.6106 39.8071H30.4252V42.6217C30.4252 42.8705 30.524 43.1092 30.7 43.2851C30.8759 43.461 31.1146 43.5599 31.3634 43.5599C31.6122 43.5599 31.8508 43.461 32.0268 43.2851C32.2027 43.1092 32.3016 42.8705 32.3016 42.6217V39.8071H35.1161C35.365 39.8071 35.6036 39.7083 35.7796 39.5323C35.9555 39.3564 36.0543 39.1177 36.0543 38.8689C36.0543 38.6201 35.9555 38.3815 35.7796 38.2055C35.6036 38.0296 35.365 37.9307 35.1161 37.9307ZM42.7343 10.0594L10.0594 42.7366C9.79787 42.999 9.48716 43.2072 9.14504 43.3493C8.80293 43.4913 8.43613 43.5645 8.06569 43.5645C7.69526 43.5645 7.32846 43.4913 6.98634 43.3493C6.64423 43.2072 6.33352 42.999 6.07203 42.7366L1.22627 37.8838C0.963873 37.6223 0.755678 37.3116 0.61362 36.9695C0.471563 36.6274 0.398438 36.2606 0.398438 35.8902C0.398438 35.5197 0.471563 35.1529 0.61362 34.8108C0.755678 34.4687 0.963873 34.158 1.22627 33.8965L33.9035 1.22627C34.165 0.963873 34.4757 0.755678 34.8178 0.61362C35.16 0.471563 35.5268 0.398438 35.8972 0.398438C36.2676 0.398438 36.6344 0.471563 36.9765 0.61362C37.3187 0.755678 37.6294 0.963873 37.8909 1.22627L42.7343 6.07907C43.2621 6.6069 43.5586 7.32277 43.5586 8.06921C43.5586 8.81565 43.2621 9.53152 42.7343 10.0594ZM31.9122 18.2287L25.7342 12.0507L2.55381 35.2311C2.37836 35.407 2.27982 35.6452 2.27982 35.8937C2.27982 36.1421 2.37836 36.3804 2.55381 36.5563L7.40427 41.4091C7.4914 41.4963 7.59487 41.5655 7.70877 41.6127C7.82266 41.6599 7.94475 41.6842 8.06804 41.6842C8.19133 41.6842 8.31342 41.6599 8.42731 41.6127C8.54121 41.5655 8.64468 41.4963 8.73181 41.4091L31.9122 18.2287ZM41.4091 7.40661L36.5563 2.55381C36.4691 2.46658 36.3657 2.39738 36.2518 2.35017C36.1379 2.30295 36.0158 2.27865 35.8925 2.27865C35.7692 2.27865 35.6471 2.30295 35.5332 2.35017C35.4193 2.39738 35.3159 2.46658 35.2287 2.55381L27.0594 10.7231L33.2398 16.9011L41.4091 8.73181C41.5845 8.55593 41.6831 8.31764 41.6831 8.06921C41.6831 7.82078 41.5845 7.58249 41.4091 7.40661Z" fill="#0084FB"/>
<path d="M49.189 27.6106C49.189 27.8594 49.0902 28.0981 48.9143 28.274C48.7383 28.45 48.4997 28.5488 48.2509 28.5488H43.5599V33.2398C43.5599 33.4886 43.461 33.7272 43.2851 33.9032C43.1092 34.0791 42.8705 34.178 42.6217 34.178C42.3729 34.178 42.1342 34.0791 41.9583 33.9032C41.7823 33.7272 41.6835 33.4886 41.6835 33.2398V28.5488H36.9925C36.7437 28.5488 36.5051 28.45 36.3291 28.274C36.1532 28.0981 36.0543 27.8594 36.0543 27.6106C36.0543 27.3618 36.1532 27.1231 36.3291 26.9472C36.5051 26.7713 36.7437 26.6724 36.9925 26.6724H41.6835V21.9814C41.6835 21.7326 41.7823 21.494 41.9583 21.318C42.1342 21.1421 42.3729 21.0433 42.6217 21.0433C42.8705 21.0433 43.1092 21.1421 43.2851 21.318C43.461 21.494 43.5599 21.7326 43.5599 21.9814V26.6724H48.2509C48.4997 26.6724 48.7383 26.7713 48.9143 26.9472C49.0902 27.1231 49.189 27.3618 49.189 27.6106ZM5.09397 7.90855H9.78493V12.5995C9.78493 12.8483 9.88378 13.087 10.0597 13.2629C10.2357 13.4389 10.4743 13.5377 10.7231 13.5377C10.972 13.5377 11.2106 13.4389 11.3865 13.2629C11.5625 13.087 11.6613 12.8483 11.6613 12.5995V7.90855H16.3523C16.6011 7.90855 16.8397 7.8097 17.0157 7.63376C17.1916 7.45781 17.2905 7.21918 17.2905 6.97035C17.2905 6.72153 17.1916 6.4829 17.0157 6.30695C16.8397 6.13101 16.6011 6.03216 16.3523 6.03216H11.6613V1.3412C11.6613 1.09237 11.5625 0.853738 11.3865 0.677793C11.2106 0.501848 10.972 0.403002 10.7231 0.403002C10.4743 0.403002 10.2357 0.501848 10.0597 0.677793C9.88378 0.853738 9.78493 1.09237 9.78493 1.3412V6.03216H5.09397C4.84514 6.03216 4.60651 6.13101 4.43057 6.30695C4.25462 6.4829 4.15577 6.72153 4.15577 6.97035C4.15577 7.21918 4.25462 7.45781 4.43057 7.63376C4.60651 7.8097 4.84514 7.90855 5.09397 7.90855ZM35.1161 37.9307H32.3016V35.1161C32.3016 34.8673 32.2027 34.6287 32.0268 34.4527C31.8508 34.2768 31.6122 34.178 31.3634 34.178C31.1146 34.178 30.8759 34.2768 30.7 34.4527C30.524 34.6287 30.4252 34.8673 30.4252 35.1161V37.9307H27.6106C27.3618 37.9307 27.1231 38.0296 26.9472 38.2055C26.7713 38.3815 26.6724 38.6201 26.6724 38.8689C26.6724 39.1177 26.7713 39.3564 26.9472 39.5323C27.1231 39.7083 27.3618 39.8071 27.6106 39.8071H30.4252V42.6217C30.4252 42.8705 30.524 43.1092 30.7 43.2851C30.8759 43.461 31.1146 43.5599 31.3634 43.5599C31.6122 43.5599 31.8508 43.461 32.0268 43.2851C32.2027 43.1092 32.3016 42.8705 32.3016 42.6217V39.8071H35.1161C35.365 39.8071 35.6036 39.7083 35.7796 39.5323C35.9555 39.3564 36.0543 39.1177 36.0543 38.8689C36.0543 38.6201 35.9555 38.3815 35.7796 38.2055C35.6036 38.0296 35.365 37.9307 35.1161 37.9307ZM42.7343 10.0594L10.0594 42.7366C9.79787 42.999 9.48716 43.2072 9.14504 43.3493C8.80293 43.4913 8.43613 43.5645 8.06569 43.5645C7.69526 43.5645 7.32846 43.4913 6.98634 43.3493C6.64423 43.2072 6.33352 42.999 6.07203 42.7366L1.22627 37.8838C0.963873 37.6223 0.755678 37.3116 0.61362 36.9695C0.471563 36.6274 0.398438 36.2606 0.398438 35.8902C0.398438 35.5197 0.471563 35.1529 0.61362 34.8108C0.755678 34.4687 0.963873 34.158 1.22627 33.8965L33.9035 1.22627C34.165 0.963873 34.4757 0.755678 34.8178 0.61362C35.16 0.471563 35.5268 0.398438 35.8972 0.398438C36.2676 0.398438 36.6344 0.471563 36.9765 0.61362C37.3187 0.755678 37.6294 0.963873 37.8909 1.22627L42.7343 6.07907C43.2621 6.6069 43.5586 7.32277 43.5586 8.06921C43.5586 8.81565 43.2621 9.53152 42.7343 10.0594ZM31.9122 18.2287L25.7342 12.0507L2.55381 35.2311C2.37836 35.407 2.27982 35.6452 2.27982 35.8937C2.27982 36.1421 2.37836 36.3804 2.55381 36.5563L7.40427 41.4091C7.4914 41.4963 7.59487 41.5655 7.70877 41.6127C7.82266 41.6599 7.94475 41.6842 8.06804 41.6842C8.19133 41.6842 8.31342 41.6599 8.42731 41.6127C8.54121 41.5655 8.64468 41.4963 8.73181 41.4091L31.9122 18.2287ZM41.4091 7.40661L36.5563 2.55381C36.4691 2.46658 36.3657 2.39738 36.2518 2.35017C36.1379 2.30295 36.0158 2.27865 35.8925 2.27865C35.7692 2.27865 35.6471 2.30295 35.5332 2.35017C35.4193 2.39738 35.3159 2.46658 35.2287 2.55381L27.0594 10.7231L33.2398 16.9011L41.4091 8.73181C41.5845 8.55593 41.6831 8.31764 41.6831 8.06921C41.6831 7.82078 41.5845 7.58249 41.4091 7.40661Z" stroke="#0084FB" stroke-width="0.8" mask="url(#path-1-outside-1_271_3898)"/>
</svg>
