<svg width="46" height="32" viewBox="0 0 46 32" fill="none" xmlns="http://www.w3.org/2000/svg">
<path d="M10.35 32C7.48113 32 5.0393 31.005 3.0245 29.0149C1.00817 27.0278 0 24.6072 0 21.7531C0 19.1337 0.900833 16.8091 2.7025 14.7794C4.50417 12.7497 6.7436 11.6594 9.4208 11.5086C9.93753 8.17905 11.4785 5.42857 14.0438 3.25714C16.6091 1.08571 19.5945 0 23 0C26.8364 0 30.0955 1.33257 32.7773 3.99771C35.4591 6.66286 36.8 9.90171 36.8 13.7143V16H38.2168C40.4187 16.0701 42.2663 16.8739 43.7598 18.4114C45.2533 19.949 46 21.8118 46 24C46 26.2415 45.2226 28.1356 43.6678 29.6823C42.1099 31.2274 40.204 32 37.95 32H10.35ZM10.35 29.7143H37.95C39.56 29.7143 40.9208 29.1619 42.0325 28.0571C43.1442 26.9524 43.7 25.6 43.7 24C43.7 22.4 43.1442 21.0476 42.0325 19.9429C40.9208 18.8381 39.56 18.2857 37.95 18.2857H34.5V13.7143C34.5 10.5524 33.3784 7.85676 31.1351 5.62743C28.8918 3.3981 26.1801 2.28419 23 2.28571C19.8199 2.28724 17.1082 3.4019 14.8649 5.62971C12.6216 7.85752 11.5 10.5524 11.5 13.7143H10.35C8.12667 13.7143 6.22917 14.4952 4.6575 16.0571C3.08583 17.619 2.3 19.5048 2.3 21.7143C2.3 23.9238 3.08583 25.8095 4.6575 27.3714C6.22917 28.9333 8.12667 29.7143 10.35 29.7143Z" fill="#0084FB"/>
</svg>
