<svg width="46" height="46" viewBox="0 0 46 46" fill="none" xmlns="http://www.w3.org/2000/svg">
<path d="M13.2624 45.8313C9.58065 45.8313 6.4498 44.5413 3.86988 41.9614C1.28996 39.3815 0 36.244 0 32.5488C0 31.0058 0.264485 29.5029 0.793454 28.0402C1.32242 26.5774 2.08628 25.2454 3.08502 24.0442L13.145 11.9648L8.87981 3.3285C8.47688 2.55701 8.49407 1.80938 8.93137 1.08563C9.37059 0.361877 10.0294 0 10.9078 0H34.9234C35.8019 0 36.4607 0.361877 36.8999 1.08563C37.3391 1.80938 37.3563 2.55701 36.9515 3.3285L32.6863 11.9648L42.7463 24.0442C43.745 25.2454 44.5089 26.5774 45.0378 28.0402C45.5668 29.501 45.8313 31.0039 45.8313 32.5488C45.8313 36.244 44.5423 39.3815 41.9643 41.9614C39.3863 44.5413 36.2545 45.8313 32.5689 45.8313H13.2624ZM22.9071 32.884C21.6314 32.884 20.5429 32.4304 19.6416 31.5233C18.7402 30.6163 18.2896 29.5249 18.2896 28.2493C18.2896 26.9736 18.7431 25.8851 19.6502 24.9838C20.5572 24.0824 21.6496 23.6318 22.9271 23.6318C24.2047 23.6318 25.2931 24.0863 26.1926 24.9952C27.092 25.9042 27.5427 26.9956 27.5446 28.2693C27.5465 29.543 27.092 30.6315 26.1811 31.5348C25.2702 32.4381 24.1789 32.8887 22.9071 32.8868M15.7832 10.7417H30.1054L34.0154 2.86446H11.8159L15.7832 10.7417ZM13.2624 42.9668H32.5689C35.4734 42.9668 37.933 41.9509 39.9477 39.9191C41.9605 37.8834 42.9668 35.4285 42.9668 32.5545C42.9668 31.3438 42.7635 30.1646 42.3567 29.0169C41.95 27.8692 41.3532 26.8285 40.5664 25.8947L30.3117 13.6062H15.5884L5.32216 25.8804C4.53157 26.8123 3.92431 27.8578 3.50037 29.0169C3.07643 30.1742 2.86446 31.3572 2.86446 32.566C2.86446 35.4343 3.88134 37.8853 5.9151 39.9191C7.94696 41.9509 10.3961 42.9668 13.2624 42.9668Z" fill="#0084FB"/>
</svg>
