<svg width="46" height="46" viewBox="0 0 46 46" fill="none" xmlns="http://www.w3.org/2000/svg">
<path d="M30.586 5.56465C33.615 2.52292 38.0467 2.45955 40.4991 4.92251C42.9578 7.3897 42.8923 11.8509 39.859 14.8927L34.7409 20.0319C34.4527 20.3311 34.2936 20.7315 34.2977 21.1469C34.3019 21.5623 34.4691 21.9595 34.7633 22.2528C35.0574 22.5461 35.455 22.7122 35.8704 22.7152C36.2858 22.7182 36.6858 22.5579 36.9842 22.2689L42.1044 17.1296C46.1411 13.0761 46.648 6.60603 42.7445 2.68556C38.8367 -1.23701 32.3793 -0.725831 28.3384 3.32771L18.1021 13.6084C14.0655 17.6619 13.5585 24.1319 17.4621 28.0503C17.6079 28.2019 17.7824 28.323 17.9755 28.4064C18.1686 28.4899 18.3764 28.534 18.5867 28.5364C18.797 28.5387 19.0057 28.4991 19.2006 28.4199C19.3954 28.3407 19.5726 28.2235 19.7216 28.0751C19.8707 27.9267 19.9888 27.7501 20.0689 27.5556C20.149 27.3611 20.1896 27.1526 20.1883 26.9423C20.1869 26.732 20.1438 26.524 20.0612 26.3305C19.9787 26.1371 19.8584 25.962 19.7075 25.8155C17.2488 23.3483 17.3164 18.8871 20.3475 15.8453L30.586 5.56465Z" fill="#0084FB"/>
<path d="M27.9575 17.3644C27.6606 17.0666 27.2575 16.899 26.837 16.8984C26.4166 16.8978 26.013 17.0643 25.7153 17.3612C25.4175 17.6582 25.2499 18.0612 25.2493 18.4817C25.2487 18.9022 25.4152 19.3057 25.7121 19.6035C28.1709 22.0706 28.1054 26.5298 25.0721 29.5736L14.8337 39.8521C11.8025 42.8939 7.37085 42.9573 4.91845 40.4943C2.45971 38.0271 2.5273 33.5659 5.55848 30.5242L10.6787 25.3849C10.8256 25.2374 10.942 25.0625 11.0213 24.8701C11.1006 24.6777 11.1412 24.4715 11.1408 24.2634C11.1404 24.0553 11.099 23.8493 11.019 23.6572C10.939 23.4651 10.822 23.2906 10.6745 23.1437C10.5271 22.9968 10.3522 22.8804 10.1597 22.8011C9.96732 22.7219 9.76117 22.6813 9.55306 22.6817C9.34494 22.6821 9.13895 22.7234 8.94683 22.8034C8.75471 22.8834 8.58023 23.0005 8.43335 23.1479L3.31309 28.2872C-0.723556 32.3429 -1.23051 38.8108 2.67305 42.7312C6.58084 46.6559 13.0382 46.1426 17.0791 42.0891L27.3175 31.8084C31.3541 27.757 31.8611 21.2828 27.9575 17.3644Z" fill="#0084FB"/>
</svg>
