<svg width="46" height="46" viewBox="0 0 46 46" fill="none" xmlns="http://www.w3.org/2000/svg">
<mask id="path-1-outside-1_271_3734" maskUnits="userSpaceOnUse" x="-0.601562" y="-0.601562" width="47" height="47" fill="black">
<rect fill="white" x="-0.601562" y="-0.601562" width="47" height="47"/>
<path d="M44.705 43.8691H38.8532V2.07038H41.3611C41.5829 2.07038 41.7955 1.98231 41.9523 1.82553C42.109 1.66876 42.1971 1.45613 42.1971 1.23441C42.1971 1.0127 42.109 0.800064 41.9523 0.643289C41.7955 0.486513 41.5829 0.398438 41.3611 0.398438H4.57831C4.35659 0.398438 4.14396 0.486513 3.98718 0.643289C3.83041 0.800064 3.74233 1.0127 3.74233 1.23441C3.74233 1.45613 3.83041 1.66876 3.98718 1.82553C4.14396 1.98231 4.35659 2.07038 4.57831 2.07038H7.08623V43.8691H1.23441C1.0127 43.8691 0.800064 43.9571 0.643289 44.1139C0.486513 44.2707 0.398438 44.4833 0.398438 44.705C0.398438 44.9268 0.486513 45.1394 0.643289 45.2962C0.800064 45.4529 1.0127 45.541 1.23441 45.541H44.705C44.9268 45.541 45.1394 45.4529 45.2962 45.2962C45.4529 45.1394 45.541 44.9268 45.541 44.705C45.541 44.4833 45.4529 44.2707 45.2962 44.1139C45.1394 43.9571 44.9268 43.8691 44.705 43.8691ZM8.75817 2.07038H37.1813V43.8691H28.8215V34.6734C28.8215 34.4516 28.7335 34.239 28.5767 34.0822C28.4199 33.9255 28.2073 33.8374 27.9856 33.8374H17.9539C17.7322 33.8374 17.5195 33.9255 17.3628 34.0822C17.206 34.239 17.1179 34.4516 17.1179 34.6734V43.8691H8.75817V2.07038ZM27.1496 43.8691H18.7899V35.5093H27.1496V43.8691ZM15.446 9.59415C15.446 9.37243 15.534 9.1598 15.6908 9.00303C15.8476 8.84625 16.0602 8.75817 16.2819 8.75817H19.6258C19.8475 8.75817 20.0602 8.84625 20.217 9.00303C20.3737 9.1598 20.4618 9.37243 20.4618 9.59415C20.4618 9.81586 20.3737 10.0285 20.217 10.1853C20.0602 10.342 19.8475 10.4301 19.6258 10.4301H16.2819C16.0602 10.4301 15.8476 10.342 15.6908 10.1853C15.534 10.0285 15.446 9.81586 15.446 9.59415ZM25.4776 9.59415C25.4776 9.37243 25.5657 9.1598 25.7225 9.00303C25.8793 8.84625 26.0919 8.75817 26.3136 8.75817H29.6575C29.8792 8.75817 30.0919 8.84625 30.2486 9.00303C30.4054 9.1598 30.4935 9.37243 30.4935 9.59415C30.4935 9.81586 30.4054 10.0285 30.2486 10.1853C30.0919 10.342 29.8792 10.4301 29.6575 10.4301H26.3136C26.0919 10.4301 25.8793 10.342 25.7225 10.1853C25.5657 10.0285 25.4776 9.81586 25.4776 9.59415ZM15.446 17.9539C15.446 17.7322 15.534 17.5195 15.6908 17.3628C15.8476 17.206 16.0602 17.1179 16.2819 17.1179H19.6258C19.8475 17.1179 20.0602 17.206 20.217 17.3628C20.3737 17.5195 20.4618 17.7322 20.4618 17.9539C20.4618 18.1756 20.3737 18.3882 20.217 18.545C20.0602 18.7018 19.8475 18.7899 19.6258 18.7899H16.2819C16.0602 18.7899 15.8476 18.7018 15.6908 18.545C15.534 18.3882 15.446 18.1756 15.446 17.9539ZM25.4776 17.9539C25.4776 17.7322 25.5657 17.5195 25.7225 17.3628C25.8793 17.206 26.0919 17.1179 26.3136 17.1179H29.6575C29.8792 17.1179 30.0919 17.206 30.2486 17.3628C30.4054 17.5195 30.4935 17.7322 30.4935 17.9539C30.4935 18.1756 30.4054 18.3882 30.2486 18.545C30.0919 18.7018 29.8792 18.7899 29.6575 18.7899H26.3136C26.0919 18.7899 25.8793 18.7018 25.7225 18.545C25.5657 18.3882 25.4776 18.1756 25.4776 17.9539ZM16.2819 27.1496C16.0602 27.1496 15.8476 27.0615 15.6908 26.9047C15.534 26.748 15.446 26.5353 15.446 26.3136C15.446 26.0919 15.534 25.8793 15.6908 25.7225C15.8476 25.5657 16.0602 25.4776 16.2819 25.4776H19.6258C19.8475 25.4776 20.0602 25.5657 20.217 25.7225C20.3737 25.8793 20.4618 26.0919 20.4618 26.3136C20.4618 26.5353 20.3737 26.748 20.217 26.9047C20.0602 27.0615 19.8475 27.1496 19.6258 27.1496H16.2819ZM25.4776 26.3136C25.4776 26.0919 25.5657 25.8793 25.7225 25.7225C25.8793 25.5657 26.0919 25.4776 26.3136 25.4776H29.6575C29.8792 25.4776 30.0919 25.5657 30.2486 25.7225C30.4054 25.8793 30.4935 26.0919 30.4935 26.3136C30.4935 26.5353 30.4054 26.748 30.2486 26.9047C30.0919 27.0615 29.8792 27.1496 29.6575 27.1496H26.3136C26.0919 27.1496 25.8793 27.0615 25.7225 26.9047C25.5657 26.748 25.4776 26.5353 25.4776 26.3136Z"/>
</mask>
<path d="M44.705 43.8691H38.8532V2.07038H41.3611C41.5829 2.07038 41.7955 1.98231 41.9523 1.82553C42.109 1.66876 42.1971 1.45613 42.1971 1.23441C42.1971 1.0127 42.109 0.800064 41.9523 0.643289C41.7955 0.486513 41.5829 0.398438 41.3611 0.398438H4.57831C4.35659 0.398438 4.14396 0.486513 3.98718 0.643289C3.83041 0.800064 3.74233 1.0127 3.74233 1.23441C3.74233 1.45613 3.83041 1.66876 3.98718 1.82553C4.14396 1.98231 4.35659 2.07038 4.57831 2.07038H7.08623V43.8691H1.23441C1.0127 43.8691 0.800064 43.9571 0.643289 44.1139C0.486513 44.2707 0.398438 44.4833 0.398438 44.705C0.398438 44.9268 0.486513 45.1394 0.643289 45.2962C0.800064 45.4529 1.0127 45.541 1.23441 45.541H44.705C44.9268 45.541 45.1394 45.4529 45.2962 45.2962C45.4529 45.1394 45.541 44.9268 45.541 44.705C45.541 44.4833 45.4529 44.2707 45.2962 44.1139C45.1394 43.9571 44.9268 43.8691 44.705 43.8691ZM8.75817 2.07038H37.1813V43.8691H28.8215V34.6734C28.8215 34.4516 28.7335 34.239 28.5767 34.0822C28.4199 33.9255 28.2073 33.8374 27.9856 33.8374H17.9539C17.7322 33.8374 17.5195 33.9255 17.3628 34.0822C17.206 34.239 17.1179 34.4516 17.1179 34.6734V43.8691H8.75817V2.07038ZM27.1496 43.8691H18.7899V35.5093H27.1496V43.8691ZM15.446 9.59415C15.446 9.37243 15.534 9.1598 15.6908 9.00303C15.8476 8.84625 16.0602 8.75817 16.2819 8.75817H19.6258C19.8475 8.75817 20.0602 8.84625 20.217 9.00303C20.3737 9.1598 20.4618 9.37243 20.4618 9.59415C20.4618 9.81586 20.3737 10.0285 20.217 10.1853C20.0602 10.342 19.8475 10.4301 19.6258 10.4301H16.2819C16.0602 10.4301 15.8476 10.342 15.6908 10.1853C15.534 10.0285 15.446 9.81586 15.446 9.59415ZM25.4776 9.59415C25.4776 9.37243 25.5657 9.1598 25.7225 9.00303C25.8793 8.84625 26.0919 8.75817 26.3136 8.75817H29.6575C29.8792 8.75817 30.0919 8.84625 30.2486 9.00303C30.4054 9.1598 30.4935 9.37243 30.4935 9.59415C30.4935 9.81586 30.4054 10.0285 30.2486 10.1853C30.0919 10.342 29.8792 10.4301 29.6575 10.4301H26.3136C26.0919 10.4301 25.8793 10.342 25.7225 10.1853C25.5657 10.0285 25.4776 9.81586 25.4776 9.59415ZM15.446 17.9539C15.446 17.7322 15.534 17.5195 15.6908 17.3628C15.8476 17.206 16.0602 17.1179 16.2819 17.1179H19.6258C19.8475 17.1179 20.0602 17.206 20.217 17.3628C20.3737 17.5195 20.4618 17.7322 20.4618 17.9539C20.4618 18.1756 20.3737 18.3882 20.217 18.545C20.0602 18.7018 19.8475 18.7899 19.6258 18.7899H16.2819C16.0602 18.7899 15.8476 18.7018 15.6908 18.545C15.534 18.3882 15.446 18.1756 15.446 17.9539ZM25.4776 17.9539C25.4776 17.7322 25.5657 17.5195 25.7225 17.3628C25.8793 17.206 26.0919 17.1179 26.3136 17.1179H29.6575C29.8792 17.1179 30.0919 17.206 30.2486 17.3628C30.4054 17.5195 30.4935 17.7322 30.4935 17.9539C30.4935 18.1756 30.4054 18.3882 30.2486 18.545C30.0919 18.7018 29.8792 18.7899 29.6575 18.7899H26.3136C26.0919 18.7899 25.8793 18.7018 25.7225 18.545C25.5657 18.3882 25.4776 18.1756 25.4776 17.9539ZM16.2819 27.1496C16.0602 27.1496 15.8476 27.0615 15.6908 26.9047C15.534 26.748 15.446 26.5353 15.446 26.3136C15.446 26.0919 15.534 25.8793 15.6908 25.7225C15.8476 25.5657 16.0602 25.4776 16.2819 25.4776H19.6258C19.8475 25.4776 20.0602 25.5657 20.217 25.7225C20.3737 25.8793 20.4618 26.0919 20.4618 26.3136C20.4618 26.5353 20.3737 26.748 20.217 26.9047C20.0602 27.0615 19.8475 27.1496 19.6258 27.1496H16.2819ZM25.4776 26.3136C25.4776 26.0919 25.5657 25.8793 25.7225 25.7225C25.8793 25.5657 26.0919 25.4776 26.3136 25.4776H29.6575C29.8792 25.4776 30.0919 25.5657 30.2486 25.7225C30.4054 25.8793 30.4935 26.0919 30.4935 26.3136C30.4935 26.5353 30.4054 26.748 30.2486 26.9047C30.0919 27.0615 29.8792 27.1496 29.6575 27.1496H26.3136C26.0919 27.1496 25.8793 27.0615 25.7225 26.9047C25.5657 26.748 25.4776 26.5353 25.4776 26.3136Z" fill="#0084FB"/>
<path d="M44.705 43.8691H38.8532V2.07038H41.3611C41.5829 2.07038 41.7955 1.98231 41.9523 1.82553C42.109 1.66876 42.1971 1.45613 42.1971 1.23441C42.1971 1.0127 42.109 0.800064 41.9523 0.643289C41.7955 0.486513 41.5829 0.398438 41.3611 0.398438H4.57831C4.35659 0.398438 4.14396 0.486513 3.98718 0.643289C3.83041 0.800064 3.74233 1.0127 3.74233 1.23441C3.74233 1.45613 3.83041 1.66876 3.98718 1.82553C4.14396 1.98231 4.35659 2.07038 4.57831 2.07038H7.08623V43.8691H1.23441C1.0127 43.8691 0.800064 43.9571 0.643289 44.1139C0.486513 44.2707 0.398438 44.4833 0.398438 44.705C0.398438 44.9268 0.486513 45.1394 0.643289 45.2962C0.800064 45.4529 1.0127 45.541 1.23441 45.541H44.705C44.9268 45.541 45.1394 45.4529 45.2962 45.2962C45.4529 45.1394 45.541 44.9268 45.541 44.705C45.541 44.4833 45.4529 44.2707 45.2962 44.1139C45.1394 43.9571 44.9268 43.8691 44.705 43.8691ZM8.75817 2.07038H37.1813V43.8691H28.8215V34.6734C28.8215 34.4516 28.7335 34.239 28.5767 34.0822C28.4199 33.9255 28.2073 33.8374 27.9856 33.8374H17.9539C17.7322 33.8374 17.5195 33.9255 17.3628 34.0822C17.206 34.239 17.1179 34.4516 17.1179 34.6734V43.8691H8.75817V2.07038ZM27.1496 43.8691H18.7899V35.5093H27.1496V43.8691ZM15.446 9.59415C15.446 9.37243 15.534 9.1598 15.6908 9.00303C15.8476 8.84625 16.0602 8.75817 16.2819 8.75817H19.6258C19.8475 8.75817 20.0602 8.84625 20.217 9.00303C20.3737 9.1598 20.4618 9.37243 20.4618 9.59415C20.4618 9.81586 20.3737 10.0285 20.217 10.1853C20.0602 10.342 19.8475 10.4301 19.6258 10.4301H16.2819C16.0602 10.4301 15.8476 10.342 15.6908 10.1853C15.534 10.0285 15.446 9.81586 15.446 9.59415ZM25.4776 9.59415C25.4776 9.37243 25.5657 9.1598 25.7225 9.00303C25.8793 8.84625 26.0919 8.75817 26.3136 8.75817H29.6575C29.8792 8.75817 30.0919 8.84625 30.2486 9.00303C30.4054 9.1598 30.4935 9.37243 30.4935 9.59415C30.4935 9.81586 30.4054 10.0285 30.2486 10.1853C30.0919 10.342 29.8792 10.4301 29.6575 10.4301H26.3136C26.0919 10.4301 25.8793 10.342 25.7225 10.1853C25.5657 10.0285 25.4776 9.81586 25.4776 9.59415ZM15.446 17.9539C15.446 17.7322 15.534 17.5195 15.6908 17.3628C15.8476 17.206 16.0602 17.1179 16.2819 17.1179H19.6258C19.8475 17.1179 20.0602 17.206 20.217 17.3628C20.3737 17.5195 20.4618 17.7322 20.4618 17.9539C20.4618 18.1756 20.3737 18.3882 20.217 18.545C20.0602 18.7018 19.8475 18.7899 19.6258 18.7899H16.2819C16.0602 18.7899 15.8476 18.7018 15.6908 18.545C15.534 18.3882 15.446 18.1756 15.446 17.9539ZM25.4776 17.9539C25.4776 17.7322 25.5657 17.5195 25.7225 17.3628C25.8793 17.206 26.0919 17.1179 26.3136 17.1179H29.6575C29.8792 17.1179 30.0919 17.206 30.2486 17.3628C30.4054 17.5195 30.4935 17.7322 30.4935 17.9539C30.4935 18.1756 30.4054 18.3882 30.2486 18.545C30.0919 18.7018 29.8792 18.7899 29.6575 18.7899H26.3136C26.0919 18.7899 25.8793 18.7018 25.7225 18.545C25.5657 18.3882 25.4776 18.1756 25.4776 17.9539ZM16.2819 27.1496C16.0602 27.1496 15.8476 27.0615 15.6908 26.9047C15.534 26.748 15.446 26.5353 15.446 26.3136C15.446 26.0919 15.534 25.8793 15.6908 25.7225C15.8476 25.5657 16.0602 25.4776 16.2819 25.4776H19.6258C19.8475 25.4776 20.0602 25.5657 20.217 25.7225C20.3737 25.8793 20.4618 26.0919 20.4618 26.3136C20.4618 26.5353 20.3737 26.748 20.217 26.9047C20.0602 27.0615 19.8475 27.1496 19.6258 27.1496H16.2819ZM25.4776 26.3136C25.4776 26.0919 25.5657 25.8793 25.7225 25.7225C25.8793 25.5657 26.0919 25.4776 26.3136 25.4776H29.6575C29.8792 25.4776 30.0919 25.5657 30.2486 25.7225C30.4054 25.8793 30.4935 26.0919 30.4935 26.3136C30.4935 26.5353 30.4054 26.748 30.2486 26.9047C30.0919 27.0615 29.8792 27.1496 29.6575 27.1496H26.3136C26.0919 27.1496 25.8793 27.0615 25.7225 26.9047C25.5657 26.748 25.4776 26.5353 25.4776 26.3136Z" stroke="#0084FB" stroke-width="0.8" mask="url(#path-1-outside-1_271_3734)"/>
</svg>
