<svg width="39" height="49" viewBox="0 0 39 49" fill="none" xmlns="http://www.w3.org/2000/svg">
<path d="M19.2701 48.5993C19.0205 48.5993 18.7572 48.5764 18.4801 48.5305C18.2029 48.4846 17.946 48.4158 17.7093 48.324C12.2898 46.2594 7.98334 42.7577 4.79001 37.819C1.59667 32.8804 0 27.5343 0 21.7808V9.99019C0 9.04687 0.268865 8.19715 0.806594 7.44103C1.34249 6.6849 2.03713 6.13708 2.89052 5.79756L17.7148 0.291805C18.2507 0.0972682 18.7691 0 19.2701 0C19.7712 0 20.2905 0.0972682 20.8283 0.291805L35.6498 5.79756C36.5013 6.13892 37.196 6.68674 37.7337 7.44103C38.2714 8.19715 38.5403 9.04687 38.5403 9.99019V21.7808C38.5403 27.5343 36.9436 32.8804 33.7503 37.819C30.5569 42.7577 26.2514 46.2594 20.8338 48.324C20.5934 48.4158 20.3355 48.4846 20.0602 48.5305C19.7849 48.5764 19.5216 48.5993 19.2701 48.5993ZM19.2701 46.0061C24.0418 44.492 27.9876 41.4638 31.1075 36.9216C34.2274 32.3793 35.7874 27.3324 35.7874 21.7808V9.93789C35.7874 9.58552 35.6901 9.26802 35.4956 8.98539C35.3029 8.70276 35.0295 8.49171 34.6752 8.35223L19.8538 2.84648C19.6776 2.77307 19.483 2.73636 19.2701 2.73636C19.0573 2.73636 18.8627 2.77307 18.6865 2.84648L3.86504 8.35223C3.51084 8.49171 3.23738 8.70276 3.04468 8.98539C2.85015 9.26802 2.75288 9.58552 2.75288 9.93789V21.7808C2.75288 27.3324 4.31284 32.3793 7.43277 36.9216C10.5527 41.4638 14.4985 44.492 19.2701 46.0061Z" fill="#0084FB"/>
</svg>
