<svg width="38" height="43" viewBox="0 0 38 43" fill="none" xmlns="http://www.w3.org/2000/svg">
<path d="M0 42.9955V32.1311C0 30.9362 0.425476 29.9159 1.27643 29.0704C2.12559 28.2248 3.14673 27.802 4.33986 27.802H33.2812C34.4744 27.802 35.4955 28.2275 36.3447 29.0784C37.1938 29.9294 37.6193 30.9496 37.6211 32.1392V42.9955H0ZM11.5255 23.0483C8.33665 23.0483 5.61808 21.9241 3.36978 19.6758C1.12326 17.4293 0 14.7134 0 11.5282C0 8.34293 1.12326 5.62436 3.36978 3.37247C5.61629 1.12058 8.33576 -0.00357442 11.5282 8.53763e-06H26.101C29.2898 8.53763e-06 32.0075 1.12327 34.254 3.36978C36.5005 5.6163 37.6229 8.33577 37.6211 11.5282C37.6193 14.7206 36.496 17.4383 34.2513 19.6812C32.0066 21.9241 29.2889 23.0474 26.0983 23.051L11.5255 23.0483ZM2.68722 40.3083H34.9339V32.1445C34.9339 31.6608 34.7789 31.264 34.469 30.9541C34.1591 30.6442 33.7631 30.4892 33.2812 30.4892H4.33986C3.85795 30.4892 3.46204 30.6442 3.15211 30.9541C2.84218 31.264 2.68722 31.6608 2.68722 32.1445V40.3083ZM11.5255 20.3611H26.0956C28.5768 20.3611 30.6701 19.5083 32.3756 17.8028C34.0811 16.0974 34.9339 14.0049 34.9339 11.5255C34.9339 9.04609 34.0811 6.95275 32.3756 5.24546C30.6701 3.53818 28.5777 2.68544 26.0983 2.68723H11.5255C9.04429 2.68723 6.95094 3.53997 5.24546 5.24546C3.53997 6.95095 2.68722 9.0443 2.68722 11.5255C2.68722 14.0067 3.53997 16.0991 5.24546 17.8028C6.95094 19.5065 9.04429 20.3593 11.5255 20.3611ZM11.5228 13.4872C12.0782 13.4872 12.5439 13.2991 12.9202 12.9229C13.2964 12.5466 13.4854 12.0809 13.4872 11.5255C13.489 10.9701 13.3008 10.5044 12.9228 10.1281C12.5448 9.75193 12.0791 9.56293 11.5255 9.56114C10.9719 9.55935 10.5061 9.74745 10.1281 10.1255C9.75013 10.5035 9.56113 10.9692 9.56113 11.5228C9.56113 12.0764 9.74924 12.5422 10.1254 12.9202C10.5017 13.2982 10.9674 13.4872 11.5228 13.4872ZM26.0956 13.4872C26.651 13.4872 27.1167 13.2991 27.493 12.9229C27.8692 12.5466 28.0582 12.0809 28.06 11.5255C28.0618 10.9701 27.8736 10.5044 27.4956 10.1281C27.1176 9.75193 26.6519 9.56293 26.0983 9.56114C25.5447 9.55935 25.0789 9.74745 24.7009 10.1255C24.3229 10.5035 24.1339 10.9692 24.1339 11.5228C24.1339 12.0764 24.322 12.5422 24.6982 12.9202C25.0745 13.2982 25.5402 13.4872 26.0956 13.4872Z" fill="#0084FB"/>
</svg>
