<svg width="47" height="44" viewBox="0 0 47 44" fill="none" xmlns="http://www.w3.org/2000/svg">
<path d="M23.6281 6.89859L20.4978 1.25L5.02677 11.2426M36.1307 11.2426L31.0635 2.09611L16.9018 11.2426M42.0546 34.1607V39.1688C42.0558 39.6385 41.9645 40.1039 41.7859 40.5383C41.6073 40.9727 41.3448 41.3676 41.0135 41.7005C40.6822 42.0335 40.2886 42.2979 39.8551 42.4787C39.4216 42.6595 38.9567 42.7531 38.487 42.7542H4.83297C3.885 42.756 2.97507 42.3814 2.3032 41.7127C1.63133 41.0439 1.25251 40.1357 1.25001 39.1877V14.8255C1.24892 14.3558 1.34038 13.8905 1.51915 13.4562C1.69793 13.0219 1.96052 12.627 2.29192 12.2942C2.62333 11.9613 3.01706 11.6971 3.45063 11.5164C3.88419 11.3358 4.3491 11.2423 4.81879 11.2414H38.4705C38.9401 11.2403 39.4054 11.3318 39.8398 11.5105C40.2741 11.6893 40.669 11.9519 41.0018 12.2833C41.3347 12.6147 41.5989 13.0084 41.7796 13.442C41.9602 13.8756 42.0537 14.3405 42.0546 14.8102V20.558M35.8092 27.4025C35.8092 27.881 35.6673 28.3488 35.4014 28.7467C35.1355 29.1445 34.7576 29.4546 34.3154 29.6376C33.8733 29.8206 33.3868 29.8684 32.9175 29.7748C32.4482 29.6813 32.0172 29.4507 31.679 29.1121C31.3408 28.7736 31.1106 28.3424 31.0175 27.873C30.9244 27.4036 30.9727 26.9171 31.1561 26.4752C31.3396 26.0332 31.65 25.6556 32.0481 25.3901C32.4462 25.1245 32.9141 24.9831 33.3926 24.9835C34.728 24.9835 35.8092 26.066 35.8092 27.4025ZM32.8077 34.2612C28.9907 34.2612 25.9171 31.2265 25.9171 27.4581C25.9171 23.6896 28.9896 20.6561 32.8089 20.6561L43.5944 20.5415C44.3601 20.5415 44.9746 21.156 44.9746 21.9194V32.7675C44.9746 33.5321 44.3601 34.1466 43.5956 34.1466L32.8077 34.2612Z" stroke="#0084FB" stroke-width="2.5" stroke-linecap="round" stroke-linejoin="round"/>
</svg>
