<svg width="48" height="50" viewBox="0 0 48 50" fill="none" xmlns="http://www.w3.org/2000/svg">
<path d="M44.1572 0.146484C45.0812 0.14653 45.9677 0.513657 46.6211 1.16699C47.2744 1.82035 47.6415 2.70689 47.6416 3.63086V16.2539C47.6393 16.9208 47.445 17.5727 47.083 18.1328C46.721 18.693 46.2058 19.138 45.5986 19.4141L27.7988 27.502C30.2319 28.3859 32.2974 30.0701 33.6514 32.2852C35.0706 34.6071 35.6152 37.3594 35.1875 40.0469C34.7597 42.7343 33.3873 45.1807 31.3174 46.9473C29.2475 48.7138 26.6157 49.6845 23.8945 49.6846C21.1732 49.6846 18.5407 48.7139 16.4707 46.9473C14.4008 45.1807 13.0284 42.7342 12.6006 40.0469C12.1729 37.3594 12.7175 34.6071 14.1367 32.2852C15.4905 30.0704 17.5557 28.386 19.9883 27.502L2.18945 19.4141C1.58228 19.138 1.06711 18.693 0.705078 18.1328C0.343136 17.5727 0.148794 16.9208 0.146484 16.2539V3.63086C0.146594 2.70689 0.513638 1.82035 1.16699 1.16699C1.82035 0.513638 2.70689 0.146594 3.63086 0.146484H44.1572ZM23.8945 29.1738C22.0979 29.1738 20.3415 29.7069 18.8477 30.7051C17.3539 31.7032 16.1895 33.1215 15.502 34.7812C14.8144 36.4411 14.6349 38.2682 14.9854 40.0303C15.3359 41.792 16.2006 43.4104 17.4707 44.6807C18.7411 45.951 20.36 46.8165 22.1221 47.167C23.884 47.5174 25.7104 47.3378 27.3701 46.6504C29.0299 45.9629 30.4491 44.7985 31.4473 43.3047C32.4454 41.8109 32.9775 40.0544 32.9775 38.2578C32.9775 35.8488 32.0208 33.5385 30.3174 31.835C28.6139 30.1315 26.3036 29.1739 23.8945 29.1738ZM14.8105 22.5762L23.8936 26.707L32.9775 22.5762V2.49902H14.8105V22.5762ZM3.63086 2.49902C3.33066 2.49913 3.04236 2.6178 2.83008 2.83008C2.6178 3.04236 2.49913 3.33066 2.49902 3.63086V16.2529C2.49908 16.4702 2.56107 16.6835 2.67871 16.8662C2.79636 17.0489 2.96431 17.1942 3.16211 17.2842L12.459 21.5088V2.49902H3.63086ZM35.3301 21.5088L44.626 17.2842C44.8238 17.1942 44.9917 17.0489 45.1094 16.8662C45.227 16.6835 45.289 16.4703 45.2891 16.2529V3.63086C45.289 3.33066 45.1703 3.04236 44.958 2.83008C44.7457 2.61782 44.4575 2.49907 44.1572 2.49902H35.3301V21.5088Z" fill="#0084FB" stroke="#0084FB" stroke-width="0.3"/>
</svg>
