<svg width="38" height="43" fill="none" xmlns="http://www.w3.org/2000/svg"><path d="M0 42.995V32.132c0-1.195.425-2.215 1.276-3.06.85-.846 1.87-1.269 3.064-1.269h28.94c1.193 0 2.215.425 3.064 1.276.849.851 1.274 1.872 1.276 3.061v10.856H0Zm11.525-19.947c-3.188 0-5.907-1.124-8.155-3.372C1.123 17.429 0 14.713 0 11.528c0-3.185 1.123-5.904 3.37-8.156C5.616 1.121 8.336-.004 11.528 0h14.573c3.189 0 5.907 1.123 8.153 3.37 2.247 2.246 3.369 4.966 3.367 8.158-.002 3.193-1.125 5.91-3.37 8.153-2.244 2.243-4.962 3.366-8.153 3.37l-14.572-.003Zm-8.838 17.26h32.247v-8.163c0-.484-.155-.881-.465-1.19-.31-.31-.706-.466-1.188-.466H4.34c-.482 0-.878.155-1.188.465-.31.31-.465.707-.465 1.19v8.164Zm8.838-19.947h14.57c2.482 0 4.575-.853 6.28-2.558 1.706-1.706 2.559-3.798 2.559-6.278 0-2.479-.853-4.572-2.558-6.28-1.706-1.707-3.798-2.56-6.278-2.558H11.526c-2.482 0-4.575.853-6.28 2.558-1.706 1.706-2.559 3.8-2.559 6.28 0 2.482.853 4.574 2.558 6.278 1.706 1.703 3.8 2.556 6.28 2.558Zm-.002-6.874c.555 0 1.02-.188 1.397-.564.376-.376.565-.842.567-1.398a1.884 1.884 0 0 0-.564-1.397 1.913 1.913 0 0 0-1.398-.567 1.89 1.89 0 0 0-1.397.565 1.899 1.899 0 0 0-.567 1.397c0 .553.188 1.02.564 1.397.377.378.842.567 1.398.567Zm14.573 0c.555 0 1.02-.188 1.397-.564.376-.376.565-.842.567-1.398a1.884 1.884 0 0 0-.564-1.397 1.913 1.913 0 0 0-1.398-.567 1.89 1.89 0 0 0-1.397.565 1.899 1.899 0 0 0-.567 1.397c0 .553.188 1.02.564 1.397.377.378.842.567 1.398.567Z" fill="#0084FB"/></svg>