<svg width="48" height="48" fill="none" xmlns="http://www.w3.org/2000/svg"><path d="m41.779 9.195-3.54 2.655a4.827 4.827 0 0 1-2.897.966h-8.104a3.808 3.808 0 0 0-2.411 6.755l4.827 3.948a14.48 14.48 0 0 1 5.223 12.806l-.049.435a19.309 19.309 0 0 1-1.262 5.037l-1.44 3.6M.75 20.056l7.815-1.303a4.826 4.826 0 0 1 5.556 5.555l-.326 1.948a8.062 8.062 0 0 0 4.344 8.527 6.034 6.034 0 0 1 3.157 6.869l-1.238 4.952" stroke="#fff" stroke-width="1.5"/><path d="M23.678 46.606c12.663 0 22.928-10.265 22.928-22.928S36.341.75 23.678.75.75 11.015.75 23.678s10.265 22.928 22.928 22.928Z" stroke="#fff" stroke-width="1.5"/></svg>