<svg width="50" height="50" fill="none" xmlns="http://www.w3.org/2000/svg"><path d="M25.042 48.98c13.247 0 23.938-10.743 23.938-24.042C48.98 11.692 38.29 1 25.043 1m0 47.98C11.744 48.98 1 38.237 1 24.938 1 11.692 11.744 1 25.042 1m0 47.98V1m20.764 11.995H4.19m41.75 23.699H4.056M1.13 24.99h47.72" stroke="#0084FB" stroke-width="2" stroke-linecap="round" stroke-linejoin="round"/><path d="M25.013 48.98c6.624 0 11.97-10.743 11.97-24.042C36.982 11.692 31.636 1 25.012 1c-6.65 0-12.02 10.692-12.02 23.938 0 13.299 5.37 24.043 12.02 24.043Z" stroke="#0084FB" stroke-width="2" stroke-linecap="round" stroke-linejoin="round"/></svg>