<svg width="46" height="46" fill="none" xmlns="http://www.w3.org/2000/svg"><mask id="a" maskUnits="userSpaceOnUse" x="-.602" y="-.602" width="47" height="47" fill="#000"><path fill="#fff" d="M-.602-.602h47v47h-47z"/><path d="M44.705 43.87h-5.852V2.07h2.508a.836.836 0 1 0 0-1.672H4.578a.836.836 0 1 0 0 1.672h2.508v41.8H1.234a.836.836 0 1 0 0 1.671h43.471a.836.836 0 0 0 0-1.672ZM8.758 2.07h28.423v41.8h-8.36v-9.197a.836.836 0 0 0-.835-.836H17.954a.836.836 0 0 0-.836.836v9.196h-8.36V2.07Zm18.392 41.8h-8.36v-8.36h8.36v8.36ZM15.446 9.593a.836.836 0 0 1 .836-.836h3.344a.836.836 0 0 1 0 1.672h-3.344a.836.836 0 0 1-.836-.836Zm10.032 0a.836.836 0 0 1 .836-.836h3.343a.836.836 0 1 1 0 1.672h-3.343a.836.836 0 0 1-.836-.836Zm-10.032 8.36a.836.836 0 0 1 .836-.836h3.344a.836.836 0 0 1 0 1.672h-3.344a.836.836 0 0 1-.836-.836Zm10.032 0a.836.836 0 0 1 .836-.836h3.343a.836.836 0 1 1 0 1.672h-3.343a.836.836 0 0 1-.836-.836Zm-9.196 9.196a.836.836 0 0 1 0-1.672h3.344a.836.836 0 0 1 0 1.672h-3.344Zm9.196-.836a.836.836 0 0 1 .836-.836h3.343a.836.836 0 1 1 0 1.672h-3.343a.836.836 0 0 1-.836-.836Z"/></mask><path d="M44.705 43.87h-5.852V2.07h2.508a.836.836 0 1 0 0-1.672H4.578a.836.836 0 1 0 0 1.672h2.508v41.8H1.234a.836.836 0 1 0 0 1.671h43.471a.836.836 0 0 0 0-1.672ZM8.758 2.07h28.423v41.8h-8.36v-9.197a.836.836 0 0 0-.835-.836H17.954a.836.836 0 0 0-.836.836v9.196h-8.36V2.07Zm18.392 41.8h-8.36v-8.36h8.36v8.36ZM15.446 9.593a.836.836 0 0 1 .836-.836h3.344a.836.836 0 0 1 0 1.672h-3.344a.836.836 0 0 1-.836-.836Zm10.032 0a.836.836 0 0 1 .836-.836h3.343a.836.836 0 1 1 0 1.672h-3.343a.836.836 0 0 1-.836-.836Zm-10.032 8.36a.836.836 0 0 1 .836-.836h3.344a.836.836 0 0 1 0 1.672h-3.344a.836.836 0 0 1-.836-.836Zm10.032 0a.836.836 0 0 1 .836-.836h3.343a.836.836 0 1 1 0 1.672h-3.343a.836.836 0 0 1-.836-.836Zm-9.196 9.196a.836.836 0 0 1 0-1.672h3.344a.836.836 0 0 1 0 1.672h-3.344Zm9.196-.836a.836.836 0 0 1 .836-.836h3.343a.836.836 0 1 1 0 1.672h-3.343a.836.836 0 0 1-.836-.836Z" fill="#0084FB"/><path d="M44.705 43.87h-5.852V2.07h2.508a.836.836 0 1 0 0-1.672H4.578a.836.836 0 1 0 0 1.672h2.508v41.8H1.234a.836.836 0 1 0 0 1.671h43.471a.836.836 0 0 0 0-1.672ZM8.758 2.07h28.423v41.8h-8.36v-9.197a.836.836 0 0 0-.835-.836H17.954a.836.836 0 0 0-.836.836v9.196h-8.36V2.07Zm18.392 41.8h-8.36v-8.36h8.36v8.36ZM15.446 9.593a.836.836 0 0 1 .836-.836h3.344a.836.836 0 0 1 0 1.672h-3.344a.836.836 0 0 1-.836-.836Zm10.032 0a.836.836 0 0 1 .836-.836h3.343a.836.836 0 1 1 0 1.672h-3.343a.836.836 0 0 1-.836-.836Zm-10.032 8.36a.836.836 0 0 1 .836-.836h3.344a.836.836 0 0 1 0 1.672h-3.344a.836.836 0 0 1-.836-.836Zm10.032 0a.836.836 0 0 1 .836-.836h3.343a.836.836 0 1 1 0 1.672h-3.343a.836.836 0 0 1-.836-.836Zm-9.196 9.196a.836.836 0 0 1 0-1.672h3.344a.836.836 0 0 1 0 1.672h-3.344Zm9.196-.836a.836.836 0 0 1 .836-.836h3.343a.836.836 0 1 1 0 1.672h-3.343a.836.836 0 0 1-.836-.836Z" stroke="#0084FB" stroke-width=".8" mask="url(#a)"/></svg>