<svg width="48" height="48" viewBox="0 0 48 48" fill="none" xmlns="http://www.w3.org/2000/svg">
<path d="M41.779 9.19531L38.2385 11.8501C37.4029 12.4768 36.3867 12.8155 35.3423 12.8155H27.2379C26.4525 12.8158 25.6864 13.0589 25.0446 13.5115C24.4027 13.9641 23.9165 14.6041 23.6525 15.3438C23.3885 16.0835 23.3596 16.8867 23.5699 17.6434C23.7801 18.4001 24.2191 19.0733 24.8268 19.5708L29.6537 23.5193C31.5233 25.0488 32.9805 27.0218 33.8927 29.2584C34.8049 31.4951 35.1431 33.9244 34.8765 36.3251L34.8282 36.7596C34.6362 38.4877 34.2116 40.182 33.566 41.7965L32.1251 45.3974M0.75 20.0559L8.56482 18.7527C9.32286 18.6261 10.1002 18.6824 10.8321 18.9169C11.564 19.1513 12.2293 19.5571 12.7727 20.1006C13.3162 20.644 13.722 21.3093 13.9564 22.0412C14.1909 22.7731 14.2472 23.5504 14.1206 24.3085L13.7948 26.2561C13.5132 27.9551 13.783 29.6995 14.5647 31.2339C15.3465 32.7684 16.5991 34.0121 18.1391 34.7829C19.369 35.3969 20.3524 36.4126 20.9265 37.6617C21.5006 38.9107 21.6309 40.3184 21.2959 41.6517L20.0578 46.6041" stroke="white" stroke-width="1.5"/>
<path d="M23.678 46.606C36.3408 46.606 46.606 36.3408 46.606 23.678C46.606 11.0152 36.3408 0.75 23.678 0.75C11.0152 0.75 0.75 11.0152 0.75 23.678C0.75 36.3408 11.0152 46.606 23.678 46.606Z" stroke="white" stroke-width="1.5"/>
</svg>
