<svg width="50" height="50" viewBox="0 0 50 50" fill="none" xmlns="http://www.w3.org/2000/svg">
<path d="M17.15 50C16.4104 50 15.8011 49.7583 15.3219 49.275C14.8427 48.7896 14.6031 48.1896 14.6031 47.475V35.3969H2.52501C1.81043 35.3969 1.21043 35.1552 0.725013 34.6719C0.239596 34.1885 -0.00206998 33.5885 1.33547e-05 32.8719V17.2094C1.33547e-05 16.4698 0.24168 15.8604 0.725013 15.3813C1.20835 14.9021 1.80835 14.6625 2.52501 14.6625H14.6031V2.52501C14.6031 1.81043 14.8448 1.21043 15.3281 0.725013C15.8115 0.239596 16.4115 -0.00206998 17.1281 1.33547e-05H32.7906C33.5302 1.33547e-05 34.1396 0.24168 34.6188 0.725013C35.0979 1.21043 35.3375 1.81043 35.3375 2.52501V14.6625H47.475C48.1917 14.6625 48.7917 14.9052 49.275 15.3906C49.7583 15.8761 50 16.475 50 17.1875V32.85C50 33.5896 49.7583 34.199 49.275 34.6781C48.7896 35.1573 48.1896 35.3969 47.475 35.3969H35.3375V47.475C35.3375 48.1917 35.0948 48.7917 34.6094 49.275C34.124 49.7583 33.525 50 32.8125 50H17.15ZM17.7281 46.875H32.2125V32.2719H46.875V17.7875H32.2125V3.12501H17.7281V17.7875H3.12501V32.2719H17.7281V46.875Z" fill="#0084FB"/>
</svg>
