<svg width="50" height="50" viewBox="0 0 50 50" fill="none" xmlns="http://www.w3.org/2000/svg">
<path d="M25.0421 48.9805C38.2886 48.9805 48.9805 38.2367 48.9805 24.9384C48.9805 11.6919 38.2886 1 25.0421 1M25.0421 48.9805C11.7437 48.9805 1 38.2367 1 24.9384C1 11.6919 11.7437 1 25.0421 1M25.0421 48.9805V1M45.806 12.9951H4.19005M45.9395 36.6936H4.05649M1.12968 24.9902H48.8508" stroke="#0084FB" stroke-width="2" stroke-linecap="round" stroke-linejoin="round"/>
<path d="M25.0132 48.9805C31.6371 48.9805 36.9824 38.2367 36.9824 24.9384C36.9824 11.6919 31.6371 1 25.0132 1C18.3634 1 12.9922 11.6919 12.9922 24.9384C12.9922 38.2367 18.3634 48.9805 25.0132 48.9805Z" stroke="#0084FB" stroke-width="2" stroke-linecap="round" stroke-linejoin="round"/>
</svg>
