<svg width="46" height="27" viewBox="0 0 46 27" fill="none" xmlns="http://www.w3.org/2000/svg">
<path d="M22.971 20.5947C24.381 20.5947 25.7593 20.1766 26.9316 19.3932C28.104 18.6099 29.0177 17.4965 29.5573 16.1939C30.0968 14.8912 30.238 13.4578 29.9629 12.075C29.6879 10.6921 29.0089 9.42184 28.0119 8.42484C27.0149 7.42784 25.7447 6.74888 24.3618 6.4738C22.9789 6.19873 21.5455 6.33991 20.2429 6.87948C18.9402 7.41905 17.8268 8.33279 17.0435 9.50513C16.2602 10.6775 15.8421 12.0558 15.8421 13.4658C15.8421 15.3565 16.5931 17.1697 17.9301 18.5067C19.267 19.8436 21.0803 20.5947 22.971 20.5947ZM22.971 7.92103C24.0676 7.92103 25.1397 8.24622 26.0515 8.85548C26.9633 9.46475 27.674 10.3307 28.0936 11.3439C28.5133 12.357 28.6231 13.4719 28.4092 14.5475C28.1952 15.623 27.6671 16.611 26.8917 17.3865C26.1163 18.1619 25.1283 18.69 24.0527 18.9039C22.9771 19.1179 21.8623 19.0081 20.8491 18.5884C19.836 18.1687 18.97 17.4581 18.3607 16.5462C17.7515 15.6344 17.4263 14.5624 17.4263 13.4658C17.4263 11.9952 18.0104 10.5849 19.0503 9.54504C20.0901 8.50521 21.5004 7.92103 22.971 7.92103ZM45.1499 0H0.792103C0.582024 0 0.38055 0.0834536 0.232002 0.232002C0.0834535 0.38055 0 0.582024 0 0.792103V26.1394C0 26.3495 0.0834535 26.551 0.232002 26.6995C0.38055 26.8481 0.582024 26.9315 0.792103 26.9315H45.1499C45.36 26.9315 45.5614 26.8481 45.71 26.6995C45.8585 26.551 45.942 26.3495 45.942 26.1394V0.792103C45.942 0.582024 45.8585 0.38055 45.71 0.232002C45.5614 0.0834536 45.36 0 45.1499 0ZM1.58421 9.3587C3.47473 8.91368 5.20374 7.95042 6.57708 6.57708C7.95042 5.20374 8.91368 3.47473 9.3587 1.58421H36.5833C37.0283 3.47473 37.9916 5.20374 39.3649 6.57708C40.7382 7.95042 42.4673 8.91368 44.3578 9.3587V17.5728C42.4673 18.0178 40.7382 18.9811 39.3649 20.3544C37.9916 21.7278 37.0283 23.4568 36.5833 25.3473H9.3587C8.91368 23.4568 7.95042 21.7278 6.57708 20.3544C5.20374 18.9811 3.47473 18.0178 1.58421 17.5728V9.3587ZM44.3578 7.72301C42.8943 7.31148 41.5611 6.53078 40.4862 5.45582C39.4112 4.38085 38.6305 3.04768 38.219 1.58421H44.3578V7.72301ZM7.72301 1.58421C7.31148 3.04768 6.53078 4.38085 5.45582 5.45582C4.38085 6.53078 3.04768 7.31148 1.58421 7.72301V1.58421H7.72301ZM1.58421 19.2085C3.04768 19.62 4.38085 20.4007 5.45582 21.4757C6.53078 22.5507 7.31148 23.8838 7.72301 25.3473H1.58421V19.2085ZM38.219 25.3473C38.6305 23.8838 39.4112 22.5507 40.4862 21.4757C41.5611 20.4007 42.8943 19.62 44.3578 19.2085V25.3473H38.219Z" fill="#0084FB"/>
</svg>
