<svg width="42" height="45" viewBox="0 0 42 45" fill="none" xmlns="http://www.w3.org/2000/svg">
<path d="M33.6909 19.9339C33.769 20.0218 33.829 20.1243 33.8675 20.2353C33.906 20.3464 33.9222 20.464 33.9153 20.5814C33.9084 20.6988 33.8784 20.8136 33.8271 20.9194C33.7757 21.0252 33.7041 21.1198 33.6162 21.1979C33.5283 21.276 33.4258 21.336 33.3147 21.3745C33.2037 21.413 33.0861 21.4292 32.9687 21.4223C32.8513 21.4154 32.7365 21.3854 32.6307 21.334C32.5249 21.2827 32.4303 21.2111 32.3522 21.1232C31.5936 20.2753 29.9604 19.6372 28.5592 19.6372C27.158 19.6372 25.5203 20.2753 24.7662 21.1232C24.6821 21.2175 24.579 21.293 24.4636 21.3445C24.3482 21.3961 24.2232 21.4225 24.0968 21.4221C23.924 21.4231 23.7547 21.3738 23.6094 21.2804C23.464 21.187 23.3489 21.0533 23.2781 20.8958C23.2072 20.7382 23.1836 20.5634 23.2101 20.3927C23.2366 20.222 23.3121 20.0626 23.4275 19.9339C24.5252 18.7068 26.6337 17.8522 28.5592 17.8522C30.4847 17.8522 32.5887 18.7068 33.6909 19.9339ZM16.2877 21.1232C16.3657 21.2111 16.4604 21.2827 16.5662 21.334C16.6719 21.3854 16.7868 21.4154 16.9042 21.4223C17.0215 21.4292 17.1391 21.413 17.2502 21.3745C17.3613 21.336 17.4637 21.276 17.5516 21.1979C17.6395 21.1198 17.7112 21.0252 17.7625 20.9194C17.8138 20.8136 17.8438 20.6988 17.8508 20.5814C17.8577 20.464 17.8415 20.3464 17.803 20.2353C17.7645 20.1243 17.7045 20.0218 17.6264 19.9339C16.5286 18.7068 14.4202 17.8522 12.4946 17.8522C10.5691 17.8522 8.46512 18.7068 7.36292 19.9339C7.24758 20.0626 7.17207 20.222 7.14555 20.3927C7.11903 20.5634 7.14264 20.7382 7.21351 20.8958C7.28439 21.0533 7.39948 21.187 7.54482 21.2804C7.69016 21.3738 7.85949 21.4231 8.03227 21.4221C8.15865 21.4225 8.28367 21.3961 8.39906 21.3445C8.51446 21.293 8.61758 21.2175 8.70163 21.1232C9.46023 20.2753 11.0935 19.6372 12.4946 19.6372C13.8958 19.6372 15.5335 20.2753 16.2877 21.1232ZM27.5105 28.8743C26.6542 29.8946 25.5848 30.7149 24.3776 31.2778C23.1703 31.8406 21.8545 32.1323 20.5225 32.1323C19.1904 32.1323 17.8746 31.8406 16.6673 31.2778C15.4601 30.7149 14.3907 29.8946 13.5344 28.8743C13.3805 28.6941 13.1614 28.5824 12.9252 28.5638C12.689 28.5452 12.4551 28.6212 12.2749 28.775C12.0947 28.9289 11.983 29.148 11.9644 29.3842C11.9458 29.6204 12.0217 29.8543 12.1756 30.0345C13.2002 31.2504 14.478 32.2279 15.9198 32.8984C17.3616 33.5688 18.9324 33.9162 20.5225 33.9162C22.1125 33.9162 23.6833 33.5688 25.1251 32.8984C26.5669 32.2279 27.8447 31.2504 28.8693 30.0345C28.9455 29.9453 29.0034 29.8419 29.0396 29.7304C29.0758 29.6188 29.0897 29.5011 29.0805 29.3842C29.0713 29.2672 29.0391 29.1532 28.9859 29.0487C28.9326 28.9442 28.8592 28.8512 28.77 28.775C28.6808 28.6988 28.5775 28.641 28.4659 28.6047C28.3543 28.5685 28.2367 28.5546 28.1197 28.5638C28.0028 28.573 27.8888 28.6052 27.7842 28.6585C27.6797 28.7117 27.5867 28.7851 27.5105 28.8743ZM41.0538 2.68017V15.1257C41.0538 22.9349 38.9565 30.2978 35.1456 35.8579C31.2656 41.514 26.0736 44.6265 20.5269 44.6265C14.9802 44.6265 9.78821 41.514 5.90818 35.8601C2.09732 30.3089 1.40971e-06 22.946 1.40971e-06 15.128V2.68017C-0.000445349 2.24476 0.105303 1.81581 0.30808 1.43051C0.510857 1.0452 0.804544 0.715155 1.16368 0.468988C1.52283 0.22282 1.93658 0.0679538 2.3691 0.017813C2.80161 -0.0323278 3.23982 0.0237695 3.64576 0.181243C6.84082 1.42624 13.2823 3.50571 20.5269 3.50571C27.7716 3.50571 34.213 1.42624 37.4081 0.185705C37.8136 0.0283687 38.2515 -0.0277696 38.6836 0.0221478C39.1158 0.0720651 39.5293 0.226534 39.8883 0.47219C40.2473 0.717845 40.5411 1.04729 40.7442 1.43201C40.9473 1.81673 41.0535 2.24514 41.0538 2.68017ZM39.2689 2.68017C39.2692 2.53509 39.2341 2.39213 39.1667 2.26366C39.0993 2.1352 39.0016 2.0251 38.882 1.94291C38.7625 1.86071 38.6247 1.80891 38.4806 1.79197C38.3365 1.77503 38.1905 1.79348 38.0551 1.84571C34.744 3.12641 28.0616 5.29066 20.5269 5.29066C12.9922 5.29066 6.30979 3.12641 2.99872 1.84794C2.8961 1.80873 2.78727 1.78832 2.67742 1.7877C2.49944 1.78723 2.32566 1.84178 2.17987 1.94388C2.05896 2.02507 1.95976 2.13462 1.89093 2.26296C1.82209 2.3913 1.78571 2.53454 1.78495 2.68017V15.1235C1.78495 30.4093 10.1921 42.8415 20.5269 42.8415C30.8618 42.8415 39.2689 30.4093 39.2689 15.128V2.68017Z" fill="#0084FB"/>
</svg>
