<svg width="44" height="46" viewBox="0 0 44 46" fill="none" xmlns="http://www.w3.org/2000/svg">
<path d="M21.8983 27.6715C24.556 27.6715 26.7106 25.517 26.7106 22.8592C26.7106 20.2014 24.556 18.0469 21.8983 18.0469C19.2405 18.0469 17.0859 20.2014 17.0859 22.8592C17.0859 25.517 19.2405 27.6715 21.8983 27.6715Z" stroke="#0084FB" stroke-width="2"/>
<path d="M6.01863 8.13527L6.62017 7.09099C6.384 6.95445 6.10844 6.90222 5.83868 6.94288C5.56893 6.98354 5.321 7.11467 5.13557 7.31476L6.01863 8.13527ZM1.20871 16.4702L0.0585686 16.1141C-0.0214846 16.3745 -0.0108095 16.6543 0.0888477 16.9078C0.188505 17.1613 0.371245 17.3735 0.607174 17.5097L1.20871 16.4702ZM1.2039 29.2493L0.602361 28.2075C0.365924 28.3437 0.182836 28.5563 0.0831477 28.8103C-0.0165404 29.0644 -0.0269043 29.3447 0.0537567 29.6054L1.2039 29.2493ZM6.01622 37.5843L5.13316 38.4024C5.31859 38.6025 5.56652 38.7336 5.83627 38.7742C6.10603 38.8149 6.38159 38.7627 6.61776 38.6261L6.01622 37.5843ZM17.0846 43.9726H15.8815C15.8813 44.2458 15.9742 44.5109 16.1447 44.7243C16.3153 44.9377 16.5534 45.0867 16.8199 45.1468L17.0846 43.9726ZM26.7116 43.9774L26.9787 45.1516C27.2447 45.0911 27.4823 44.9419 27.6524 44.7285C27.8225 44.5151 27.915 44.2503 27.9147 43.9774H26.7116ZM37.7824 37.5867L37.1808 38.6285C37.417 38.7651 37.6926 38.8173 37.9623 38.7767C38.2321 38.736 38.48 38.6049 38.6654 38.4048L37.7824 37.5867ZM42.5899 29.2469L43.74 29.603C43.8201 29.3427 43.8094 29.0628 43.7097 28.8093C43.6101 28.5558 43.4273 28.3436 43.1914 28.2075L42.5899 29.2469ZM42.5947 16.4678L43.1962 17.5097C43.4327 17.3734 43.6157 17.1608 43.7154 16.9068C43.8151 16.6528 43.8255 16.3724 43.7448 16.1117L42.5947 16.4678ZM37.7824 8.13045L38.6654 7.31236C38.48 7.11227 38.2321 6.98113 37.9623 6.94047C37.6926 6.89981 37.417 6.95204 37.1808 7.08859L37.7824 8.13045ZM26.714 1.74691H27.9171C27.9168 1.47447 27.8241 1.21019 27.654 0.997316C27.484 0.784446 27.2468 0.63559 26.9811 0.575108L26.714 1.74691ZM17.0894 1.7421L16.8223 0.567889C16.5558 0.62799 16.3177 0.776999 16.1471 0.990406C15.9766 1.20381 15.8838 1.46891 15.8839 1.7421H17.0894ZM2.35886 16.8263C3.26239 13.8938 4.81419 11.2022 6.89928 8.95095L5.13557 7.31476C2.80432 9.83062 1.06912 12.8364 0.0585686 16.1141L2.35886 16.8263ZM4.18754 33.0872C3.42237 31.7628 2.80817 30.3569 2.35645 28.8956L0.0561626 29.6078C0.562306 31.2404 1.24995 32.811 2.10621 34.2902L4.18754 33.0872ZM6.90169 36.7686C5.86302 35.6467 4.95101 34.4118 4.18754 33.0872L2.10621 34.2902C2.95906 35.7706 3.97519 37.1508 5.13557 38.4048L6.90169 36.7686ZM26.4469 42.808C23.4548 43.4884 20.3479 43.4867 17.3565 42.8032L16.8223 45.1468C20.1652 45.9112 23.6372 45.9137 26.9811 45.154L26.4469 42.808ZM41.4445 28.8956C40.541 31.8281 38.9892 34.5197 36.9041 36.771L38.6678 38.4072C40.9991 35.8913 42.7343 32.8831 43.7448 29.6054L41.4445 28.8956ZM39.6159 12.6348C40.3955 13.9895 41.0042 15.3947 41.4494 16.8263L43.7472 16.1141C43.2411 14.4816 42.5534 12.9109 41.6972 11.4317L39.6159 12.6348ZM36.9017 8.95336C37.9404 10.0753 38.8524 11.3101 39.6159 12.6348L41.6972 11.4317C40.8443 9.95129 39.8282 8.57116 38.6678 7.31717L36.9017 8.95336ZM17.3565 2.9139C20.3486 2.23355 23.4555 2.23519 26.4469 2.91871L26.9811 0.575108C23.6382 -0.189258 20.1662 -0.191725 16.8223 0.567889L17.3565 2.9139ZM18.2925 6.19109V1.73969H15.8863V6.19109H18.2925ZM10.4724 9.31428L6.62017 7.09099L5.41709 9.17232L9.26695 11.398L10.4724 9.31428ZM4.45703 25.9842L0.602361 28.2075L1.80785 30.2912L5.65771 28.0679L4.45703 25.9842ZM5.66011 17.6492L1.81025 15.4283L0.607174 17.5121L4.45703 19.733L5.66011 17.6492ZM18.2925 43.9726V39.5284H15.8863V43.9726H18.2925ZM9.26935 34.3191L5.41709 36.5424L6.62017 38.6261L10.47 36.4028L9.26935 34.3191ZM38.3863 36.5448L34.534 34.3191L33.331 36.4052L37.1808 38.6285L38.3863 36.5448ZM27.9171 43.9798V39.5284H25.5109V43.9798H27.9171ZM41.9955 15.4259L38.1433 17.6492L39.3464 19.733L43.1962 17.5097L41.9955 15.4259ZM43.1938 28.2051L39.3464 25.989L38.1433 28.0727L41.9931 30.2936L43.1938 28.2051ZM27.9171 6.19109V1.74691H25.5109V6.19109H27.9171ZM37.1832 7.09099L33.331 9.31669L34.534 11.4004L38.3863 9.17473L37.1832 7.09099ZM25.5109 6.19109C25.5109 10.8205 30.523 13.7152 34.534 11.4004L33.331 9.31669C32.7821 9.63357 32.1595 9.80034 31.5258 9.80024C30.892 9.80014 30.2695 9.63316 29.7207 9.31611C29.172 8.99906 28.7164 8.54311 28.3998 7.99411C28.0832 7.44512 27.9167 6.82484 27.9171 6.19109H25.5109ZM38.1433 17.6516C34.1322 19.9664 34.1322 25.7556 38.1433 28.0703L39.3464 25.9866C38.7977 25.6698 38.3422 25.2142 38.0254 24.6655C37.7087 24.1169 37.5419 23.4945 37.5419 22.861C37.5419 22.2274 37.7087 21.6051 38.0254 21.0564C38.3422 20.5078 38.7977 20.0522 39.3464 19.7354L38.1433 17.6516ZM34.534 34.3215C30.523 32.0068 25.5109 34.8966 25.5109 39.5284H27.9171C27.9171 38.8949 28.0839 38.2749 28.4007 37.7263C28.7175 37.1776 29.1731 36.722 29.7218 36.4052C30.2704 36.0885 30.8928 35.9217 31.5264 35.9217C32.1599 35.9217 32.7823 36.0885 33.331 36.4052L34.534 34.3215ZM18.2925 39.5284C18.2925 34.899 13.2804 32.0068 9.26935 34.3215L10.4724 36.4052C11.0213 36.0884 11.6439 35.9216 12.2776 35.9217C12.9114 35.9218 13.5339 36.0888 14.0827 36.4058C14.6314 36.7229 15.087 37.1788 15.4036 37.7278C15.7202 38.2768 15.8867 38.8995 15.8863 39.5333L18.2925 39.5284ZM5.66011 28.0703C9.67118 25.7556 9.67118 19.9664 5.66011 17.6516L4.45703 19.7354C6.86319 21.1237 6.86319 24.5934 4.45703 25.9842L5.66011 28.0703ZM15.8863 6.19109C15.8859 6.82443 15.7188 7.44651 15.4018 7.99483C15.0849 8.54316 14.6292 8.99843 14.0806 9.31491C13.532 9.63139 12.9098 9.79794 12.2764 9.79783C11.6431 9.79772 11.0209 9.63096 10.4724 9.31428L9.26935 11.4004C13.2804 13.7152 18.2925 10.8229 18.2925 6.19109H15.8863Z" fill="#0084FB"/>
</svg>
