<svg width="44" height="42" viewBox="0 0 44 42" fill="none" xmlns="http://www.w3.org/2000/svg">
<path d="M21.9724 18.8305C19.3839 18.8305 17.1668 17.9076 15.3211 16.0619C13.4754 14.2163 12.5536 12.0002 12.5557 9.41371C12.5578 6.82724 13.4796 4.60907 15.3211 2.7592C17.1626 0.909328 19.3797 -0.0103748 21.9724 8.82712e-05C24.5652 0.0105513 26.7823 0.9313 28.6238 2.76234C30.4653 4.59337 31.3871 6.81154 31.3892 9.41685C31.3913 12.0221 30.4695 14.2382 28.6238 16.0651C26.7781 17.8919 24.561 18.8116 21.9724 18.8305ZM0 41.528V36.3613C0 35.066 0.376671 33.8544 1.13001 32.7265C1.88545 31.5965 2.90036 30.7196 4.17476 30.0961C7.1379 28.6752 10.1031 27.61 13.0705 26.9006C16.0357 26.1891 19.003 25.8334 21.9724 25.8334C24.9419 25.8334 27.9102 26.1891 30.8776 26.9006C33.8449 27.6121 36.808 28.6773 39.767 30.0961C41.0435 30.7196 42.0584 31.5965 42.8117 32.7265C43.5672 33.8544 43.9449 35.066 43.9449 36.3613V41.528H0ZM3.13892 38.3891H40.806V36.3613C40.806 35.6666 40.581 35.0126 40.1311 34.3995C39.6833 33.7885 39.0628 33.2716 38.2697 32.8489C35.6874 31.5975 33.0235 30.6391 30.278 29.9736C27.5325 29.3082 24.764 28.9744 21.9724 28.9723C19.1809 28.9702 16.4124 29.303 13.6669 29.9705C10.9213 30.638 8.25745 31.5965 5.67517 32.8457C4.87997 33.2685 4.25952 33.7853 3.81379 34.3964C3.36388 35.0095 3.13892 35.6645 3.13892 36.3613V38.3891ZM21.9724 15.6947C23.6988 15.6947 25.1773 15.0795 26.4077 13.849C27.6382 12.6185 28.2524 11.1391 28.2503 9.41057C28.2482 7.68207 27.634 6.20469 26.4077 4.97842C25.1815 3.75214 23.703 3.13691 21.9724 3.13273C20.2418 3.12854 18.7645 3.74377 17.5403 4.97842C16.3161 6.21306 15.7009 7.69044 15.6946 9.41057C15.6883 11.1307 16.3036 12.6091 17.5403 13.8459C18.777 15.0826 20.2544 15.6968 21.9724 15.6884" fill="#0084FB"/>
</svg>
